<?xml version="1.0" encoding="UTF-8"?>
<svg width="33px" height="33px" viewBox="0 0 33 33" version="1.1" xmlns="http://www.w3.org/2000/svg" xmlns:xlink="http://www.w3.org/1999/xlink">
    <!-- Generator: Sketch 52.3 (67297) - http://www.bohemiancoding.com/sketch -->
    <title>icon-process-rocket</title>
    <desc>Created with Sketch.</desc>
    <g id="Page-1" stroke="none" stroke-width="1" fill="none" fill-rule="evenodd">
        <g id="Home" transform="translate(-912.000000, -3659.000000)" fill="#FFFFFF">
            <g id="OUR-CREATIVE-PROCESS" transform="translate(92.000000, 2909.000000)">
                <g id="icon-process-rocket" transform="translate(802.000000, 732.000000)">
                    <g transform="translate(18.000000, 18.000000)">
                        <path d="M4.12402941,25.1123281 C4.41557919,24.8207783 4.41557919,24.3480271 4.12402941,24.0564027 C3.83247964,23.7649276 3.35972851,23.7649276 3.06810407,24.0564027 L0.218680995,26.9059751 C-0.0728687783,27.1975249 -0.0728687783,27.670276 0.218680995,27.9619005 C0.364418552,28.107638 0.555549774,28.1805814 0.746606335,28.1805814 C0.937662896,28.1805814 1.12879412,28.107638 1.27453167,27.9619005 L4.12402941,25.1123281 Z" id="Path"/>
                        <path d="M22.914543,5.12388462 C22.2524525,5.78604977 21.88781,6.6663733 21.88781,7.60269231 C21.88781,8.53908597 22.2524525,9.4194095 22.914543,10.0815 C23.5979118,10.7648688 24.4956312,11.1065158 25.3933507,11.1065158 C26.2910701,11.1065158 27.1887149,10.7648688 27.8720837,10.0815 C28.5342489,9.4194095 28.8988167,8.53908597 28.8988167,7.60269231 C28.8988167,6.6663733 28.5341742,5.78604977 27.8720837,5.12388462 C26.5053462,3.75714706 24.2814299,3.75714706 22.914543,5.12388462 Z M26.816233,9.02564932 C26.0316244,9.81040724 24.7550769,9.81033258 23.9703937,9.02564932 C23.5902964,8.64555204 23.3810226,8.14032353 23.3810226,7.60269231 C23.3810226,7.06521041 23.590371,6.55983258 23.9703937,6.17973529 C24.3627353,5.78739367 24.8779683,5.59126018 25.3933507,5.59126018 C25.9085837,5.59126018 26.4240407,5.78746833 26.816233,6.17973529 C27.1963303,6.55983258 27.4056787,7.06513575 27.4056787,7.60269231 C27.4056787,8.14032353 27.1963303,8.64555204 26.816233,9.02564932 Z" id="Shape" fill-rule="nonzero"/>
                        <path d="M6.47867647,26.4110498 C6.1871267,26.1195747 5.71437557,26.1195747 5.42282579,26.4110498 L1.42579412,30.4081561 C1.13424434,30.6997059 1.13424434,31.172457 1.42579412,31.4640814 C1.57160633,31.609819 1.7626629,31.6827624 1.95371946,31.6827624 C2.14477602,31.6827624 2.33590724,31.609819 2.4816448,31.4640814 L6.47867647,27.4669751 C6.77022624,27.1753507 6.77022624,26.7025995 6.47867647,26.4110498 Z" id="Path"/>
                        <path d="M32.5207534,0.995151584 C32.4507217,0.742649321 32.2533937,0.545470588 32.0010407,0.475364253 C29.2800339,-0.279828054 26.3327308,-0.132895928 23.4777081,0.900033937 C21.2654389,1.70047059 19.1138688,3.04227149 17.5746652,4.58154977 L15.2530181,6.90319683 L6.8421991,8.217 C6.68585973,8.24141403 6.5413914,8.31488009 6.42947511,8.42672172 L1.05010181,13.806095 C0.840604072,14.0156674 0.774753394,14.3291674 0.882339367,14.6051878 C0.989925339,14.8812081 1.25064027,15.0674864 1.54659502,15.0799548 L6.85295023,15.3031154 L5.52302036,16.6330452 C5.23147059,16.924595 5.23147059,17.3973462 5.52302036,17.6889706 L6.29926697,18.4651425 L3.98083032,22.018914 C3.78790724,22.3146448 3.82844796,22.7050452 4.07818778,22.9547851 L10.0414072,28.9179299 C10.2911471,29.167595 10.6815475,29.2083597 10.9773529,29.0152873 L14.5309751,26.696776 L15.3072217,27.4730226 C15.5987715,27.7644977 16.0715226,27.7644977 16.3631471,27.4730226 L17.6930769,26.1430928 L17.9162376,31.4492986 C17.9287059,31.7453281 18.1149842,32.0059683 18.3910045,32.1135543 C18.4791041,32.1478982 18.5709367,32.1645475 18.6620226,32.1645475 C18.8564389,32.1645475 19.0474208,32.0884683 19.1900973,31.9458665 L24.5694706,26.5664932 C24.6813869,26.4545769 24.7547783,26.3100339 24.779267,26.1537692 L26.0931448,17.7430249 L28.4147172,15.4213778 C29.9539208,13.8821742 31.2957964,11.7306041 32.096233,9.5184095 C33.1290136,6.66346154 33.275871,3.71608371 32.5207534,0.995151584 Z M10.6688552,27.4336018 L5.56251584,22.3272624 L7.3783371,19.5440633 L9.88723303,22.0529593 L9.59217421,22.3480181 C9.30054977,22.6395679 9.30054977,23.112319 9.59217421,23.4039434 C9.88372398,23.6954186 10.3564751,23.6954186 10.6480995,23.4039434 L10.9431584,23.1088846 L13.4520543,25.6177805 L10.6688552,27.4336018 Z M27.3587172,14.3656018 L24.8649774,16.8594163 C24.8646787,16.8597149 24.8643801,16.8600136 24.8640814,16.8603122 L22.2693258,19.4550679 C21.977776,19.7466176 21.977776,20.2193688 22.2693258,20.5109932 C22.5608756,20.8024683 23.0336267,20.8024683 23.3252511,20.5109932 L24.3019615,19.5342828 L23.3414525,25.6828846 L19.3366561,29.6877557 L19.1273077,24.7089367 L21.2135498,22.6226946 C21.5050995,22.3311448 21.5050995,21.8583937 21.2135498,21.5667692 C20.922,21.2752941 20.4492489,21.2752941 20.1576244,21.5667692 L17.8415769,23.8828167 C17.8403077,23.884086 17.8391131,23.8852805 17.8378439,23.8865498 L15.8351471,25.8891719 L15.1693982,25.2234231 C15.1617828,25.2155837 15.1541674,25.2078937 15.1462534,25.2003529 L11.9989344,22.0529593 L21.0287647,13.0232036 C21.3203145,12.7316538 21.3203891,12.2589027 21.0287647,11.9672783 C20.7372896,11.6758778 20.2645385,11.6758032 19.972914,11.9672783 L10.9430837,20.9971833 L7.79561538,17.8497149 C7.78814932,17.8419502 7.78053394,17.8343348 7.77269457,17.8267941 L7.1069457,17.1609706 L9.10964253,15.1582738 C9.11091176,15.1570792 9.11210633,15.1558846 9.1133009,15.1546154 L11.4293484,12.8385679 C11.7209729,12.5470181 11.7209729,12.074267 11.4293484,11.7826425 C11.1378733,11.4911674 10.6650475,11.4911674 10.3734977,11.7826425 L8.28725566,13.8688846 L3.30843665,13.6594615 L7.31323303,9.65466516 L13.4618348,8.69423077 L12.4851244,9.67086652 L13.5409751,10.7267919 L16.1278914,8.13987557 C16.133491,8.13442534 16.1390905,8.12890045 16.1445407,8.12322624 L18.6304412,5.63732579 C20.7080973,3.55974434 25.6413733,0.481411765 31.1885837,1.80745928 C32.5146312,7.35474434 29.4362986,12.288095 27.3587172,14.3656018 Z" id="Shape" fill-rule="nonzero"/>
                        <path d="M7.88378959,28.8720882 L5.03429186,31.721586 C4.74274208,32.0131357 4.74274208,32.4858869 5.03429186,32.7775113 C5.18010407,32.9232489 5.37116063,32.9961923 5.56221719,32.9961923 C5.75327376,32.9961923 5.94440498,32.9232489 6.09014253,32.7775113 L8.93964027,29.9280136 C9.23119005,29.6364638 9.23119005,29.1637127 8.93964027,28.8720882 C8.64816516,28.5805385 8.17541403,28.5805385 7.88378959,28.8720882 Z" id="Path"/>
                    </g>
                </g>
            </g>
        </g>
    </g>
</svg>