<?xml version="1.0" encoding="UTF-8"?>
<svg width="86px" height="86px" viewBox="0 0 86 86" version="1.1" xmlns="http://www.w3.org/2000/svg" xmlns:xlink="http://www.w3.org/1999/xlink">
    <!-- Generator: Sketch 52.5 (67469) - http://www.bohemiancoding.com/sketch -->
    <title>icon-product copy</title>
    <desc>Created with Sketch.</desc>
    <g id="Page-1" stroke="none" stroke-width="1" fill="none" fill-rule="evenodd">
        <g id="Process---Mobile" transform="translate(-245.000000, -3908.000000)">
            <g id="Make-it-live" transform="translate(25.000000, 3903.000000)">
                <g id="circle-test" transform="translate(66.000000, 0.000000)">
                    <g id="icon-product-copy" transform="translate(154.000000, 5.000000)">
                        <path d="M62.01669,39.7902871 L23.8658879,39.7902871 L23.8658879,9.14989828 L62.01669,9.14989828 L62.01669,39.7902871 Z" id="Path" stroke="#FFFFFF" stroke-width="2.1"></path>
                        <path d="M36.3366167,21.2330558 L41.2409692,34.7184067 L31.1264501,21.2330558 L36.3366167,21.2330558 Z" id="Path" stroke="#FFFFFF" stroke-width="1.3"></path>
                        <path d="M30.3264966,20.0957285 L34.1546624,14.991477 L41.8501101,14.991477 L36.7458891,20.0957285 L30.3264966,20.0957285 Z" id="Path" stroke="#FFFFFF" stroke-width="2.1"></path>
                        <path d="M37.6033705,20.8330558 L48.3316806,20.8330558 L42.9675255,35.580922 L37.6033705,20.8330558 Z" id="Path" stroke="#FFFFFF" stroke-width="2.1"></path>
                        <path d="M43.1539588,18.360917 L43.3065152,18.2083597 L43.0014024,18.2083597 L43.1539588,18.360917 Z M38.2366881,20.3083597 L43.1539588,15.3910596 L48.0712295,20.3083597 L38.2366881,20.3083597 Z" id="Path" stroke="#FFFFFF" stroke-width="2.1"></path>
                        <path d="M49.1824878,20.0957285 L44.0782668,14.991477 L51.7737146,14.991477 L55.6018803,20.0957285 L49.1824878,20.0957285 Z" id="Path" stroke="#FFFFFF" stroke-width="2.1"></path>
                        <path d="M54.9201797,21.0830558 L44.0192988,35.6168366 L49.3049443,21.0830558 L54.9201797,21.0830558 Z" id="Path" stroke="#FFFFFF" stroke-width="1.6"></path>
                        <path d="M85.9997999,45.8668339 L85.9997999,40.1334797 C85.9997999,39.3419184 85.3580264,38.7001411 84.5664699,38.7001411 L63.06652,38.7001411 L63.06652,10.0333699 C63.06652,9.24180869 62.4247464,8.60003135 61.63319,8.60003135 L50.0074503,8.60003135 C51.9424458,6.71769949 53.0339266,4.13285257 53.03321,1.43333856 C53.03321,0.64177734 52.3914365,1.71098569e-15 51.59988,1.71098569e-15 C48.072634,0.00555418692 44.8073291,1.86298179 42.9999,4.8919845 C41.1924708,1.86298179 37.9271659,0.00555418692 34.39992,0 C33.6083635,0 32.96659,0.64177734 32.96659,1.43333856 C32.9658733,4.13285257 34.0573541,6.71769949 35.9923496,8.60003135 L24.36661,8.60003135 C23.5750535,8.60003135 22.93328,9.24180869 22.93328,10.0333699 L22.93328,38.7001411 L1.43333,38.7001411 C0.641773507,38.7001411 0,39.3419184 0,40.1334797 L0,45.8668339 C0,46.6583951 0.641773507,47.3001724 1.43333,47.3001724 L48.5010205,47.3001724 L39.9010405,50.1668496 L18.63329,50.1668496 C18.2530992,50.1668496 17.8886751,50.3180668 17.6199257,50.5868178 L11.46664,56.7401402 L9.6133443,54.8868334 C9.05362894,54.3272939 8.14633105,54.3272939 7.58661568,54.8868334 L0.41996569,62.0535262 C-0.139570509,62.6132449 -0.139570509,63.5205483 0.41996569,64.080267 L21.9199157,85.5803453 C22.479631,86.1398849 23.3869289,86.1398849 23.9466443,85.5803453 L31.1132943,78.4136525 C31.6728305,77.8539338 31.6728305,76.9466305 31.1132943,76.3869118 L30.8767948,76.150411 L39.1585756,70.2335894 C44.3176171,70.2335894 48.1868983,70.2335894 50.766419,70.2335894 C54.4553281,70.2335894 59.9886918,70.2335894 67.36651,70.2335894 C67.7252008,70.2335894 68.0709916,70.0990347 68.335441,69.8566214 L83.9214714,55.5705359 C86.2717743,53.4192739 86.6811692,49.8665651 84.8818025,47.2371056 C85.5291302,47.0982509 85.9937083,46.5288571 85.9997999,45.8668339 Z M49.9830837,3.05014445 C49.3601227,5.713825 47.2803608,7.79359925 44.6166962,8.41656402 C45.2396573,5.75288347 47.3194191,3.67310922 49.9830837,3.05014445 Z M41.3831037,8.41656402 C38.7194391,7.79359925 36.6396773,5.713825 36.0167162,3.05014445 C38.6803809,3.67310922 40.7601427,5.75288347 41.3831037,8.41656402 Z M25.79994,11.4667085 L60.19986,11.4667085 L60.19986,38.7001411 L44.7915625,38.7001411 L41.2082375,38.7001411 L25.79994,38.7001411 L25.79994,11.4667085 Z M2.86666,44.4334953 L2.86666,41.5668182 L83.1331399,41.5668182 L83.1331399,44.4334953 L2.86666,44.4334953 Z M61.2617783,48.1236255 C61.1087703,47.8346286 60.9313958,47.5590692 60.7316254,47.3001724 L73.630162,47.3001724 L63.9551846,55.9002038 L58.8682964,55.9002038 C61.6767274,54.4136525 62.7483207,50.931894 61.2617783,48.1236255 Z M22.93328,82.5402343 L3.46005862,63.0668966 L8.59997999,57.9269445 L28.0732014,77.4002822 L22.93328,82.5402343 Z M81.9864759,53.4633491 L66.8089446,67.3667331 L38.69991,67.3667331 C38.4012398,67.3667331 38.1102738,67.4599001 37.8671452,67.6333341 L28.8213996,74.0948243 L13.4933686,58.7667018 L19.2266886,53.0333475 L40.13324,53.0333475 C40.2871438,53.0335267 40.4401518,53.0088016 40.5861723,52.9602473 L55.2491381,48.0725628 C56.7650638,47.5639067 58.4064058,48.3805514 58.9150588,49.8964861 C59.4237118,51.4124208 58.607072,53.0537726 57.0911464,53.5624286 C57.0366798,53.5807037 56.9816758,53.5973662 56.9261342,53.6124163 L48.5411537,55.9000246 L44.43323,55.9000246 L44.43323,58.7667018 L64.49985,58.7667018 C64.8506575,58.7668809 65.1892817,58.6382388 65.4515811,58.4055004 L76.939721,48.1943965 C77.5875862,47.6180153 78.4246509,47.2996349 79.2918155,47.2999933 L79.5885149,47.2999933 C81.5453686,47.2930058 83.1374399,48.8736199 83.1444274,50.8303062 C83.1480107,51.832389 82.7273284,52.7889633 81.9864759,53.4633491 Z" id="Shape" fill="#FFFFFF" fill-rule="nonzero"></path>
                        <polygon id="Rectangle" fill="#FFFFFF" points="6.14124763 62.6482969 8.16405345 60.6212769 12.455436 64.9215998 10.4326302 66.9486198"></polygon>
                        <rect id="Rectangle" fill="#FFFFFF" x="67.5140187" y="5.62616822" width="3.21495327" height="3.21495327"></rect>
                        <rect id="Rectangle" fill="#FFFFFF" x="69.9252336" y="3.21495327" width="3.21495327" height="3.21495327"></rect>
                        <rect id="Rectangle" fill="#FFFFFF" x="72.3364486" y="5.62616822" width="3.21495327" height="3.21495327"></rect>
                        <rect id="Rectangle" fill="#FFFFFF" x="69.9252336" y="8.8411215" width="3.21495327" height="3.21495327"></rect>
                        <rect id="Rectangle" fill="#FFFFFF" x="82.7850467" y="1.60747664" width="3.21495327" height="3.21495327"></rect>
                        <rect id="Rectangle" fill="#FFFFFF" x="70.728972" y="16.8785047" width="3.21495327" height="3.21495327"></rect>
                        <rect id="Rectangle" fill="#FFFFFF" x="12.8598131" y="15.271028" width="3.21495327" height="3.21495327"></rect>
                        <rect id="Rectangle" fill="#FFFFFF" x="12.8598131" y="21.7009346" width="3.21495327" height="3.21495327"></rect>
                        <rect id="Rectangle" fill="#FFFFFF" x="15.271028" y="18.4859813" width="3.21495327" height="3.21495327"></rect>
                        <rect id="Rectangle" fill="#FFFFFF" x="9.64485981" y="18.4859813" width="3.21495327" height="3.21495327"></rect>
                        <rect id="Rectangle" fill="#FFFFFF" x="0" y="8.8411215" width="3.21495327" height="3.21495327"></rect>
                        <rect id="Rectangle" fill="#FFFFFF" x="12.8598131" y="1.60747664" width="3.21495327" height="3.21495327"></rect>
                    </g>
                </g>
            </g>
        </g>
    </g>
</svg>