<?xml version="1.0" encoding="UTF-8"?>
<svg width="31px" height="31px" viewBox="0 0 31 31" version="1.1" xmlns="http://www.w3.org/2000/svg" xmlns:xlink="http://www.w3.org/1999/xlink">
    <!-- Generator: Sketch 52.3 (67297) - http://www.bohemiancoding.com/sketch -->
    <title>icon-process-giftbox</title>
    <desc>Created with Sketch.</desc>
    <g id="Page-1" stroke="none" stroke-width="1" fill="none" fill-rule="evenodd">
        <g id="Home" transform="translate(-373.000000, -3755.000000)" fill="#FFFFFF" fill-rule="nonzero">
            <g id="OUR-CREATIVE-PROCESS" transform="translate(92.000000, 2909.000000)">
                <g id="icon-process-giftbox" transform="translate(262.000000, 827.000000)">
                    <g transform="translate(19.000000, 19.000000)" id="Shape">
                        <path d="M30.5217704,6.19873098 L27.9977033,6.19873098 C28.0710224,6.09577793 28.1374825,5.98761808 28.1956648,5.87425139 C28.5296211,5.22150548 28.5747951,4.45278944 28.3195976,3.76501577 L27.5547144,1.70784836 C27.2997534,1.02078473 26.7640513,0.468388444 26.0854955,0.192426932 C25.40623,-0.0837711783 24.6368532,-0.0617605435 23.9743802,0.253015388 L17.9210656,3.12978368 C17.6218766,2.9158307 17.2559909,2.78944694 16.8610141,2.78944694 L14.1392222,2.78944694 C13.7442454,2.78944694 13.3781232,2.91606736 13.0789342,3.13002034 L7.02585614,0.252778729 C6.36338315,-0.0617605435 5.59400626,-0.0837711783 4.91474083,0.192426932 C4.23618495,0.468388444 3.70048295,1.02078473 3.44552187,1.7076117 L2.68063875,3.76525243 C2.42544117,4.45278944 2.47061518,5.22150548 2.80480808,5.87425139 C2.86275376,5.98761808 2.9294504,6.09601459 3.00276947,6.19873098 L0.478465882,6.19873098 C0.214280778,6.19873098 5.37768377e-17,6.41292063 5.37768377e-17,6.6775218 L5.37768377e-17,10.1242002 C5.37768377e-17,10.3885647 0.214280778,10.602991 0.478465882,10.602991 C0.742650925,10.602991 0.956931763,10.3885647 0.956931763,10.1242002 L0.956931763,7.1560759 L4.28017635,7.1560759 C4.33339177,7.17477314 4.3873168,7.1920503 4.44195126,7.20719741 L8.45865212,8.31364677 C7.56605197,9.68233053 6.77870003,11.1220163 6.10463792,12.6137704 L0.956931763,12.6137704 L0.956931763,12.0391268 C0.956931763,11.7747623 0.742650925,11.5605727 0.478465882,11.5605727 C0.214280778,11.5605727 0,11.7747623 0,12.0391268 L0,13.0925612 C0,13.3569257 0.214280778,13.571352 0.478465882,13.571352 L2.18467087,13.571352 L2.18467087,30.5212092 C2.18467087,30.7858103 2.39895171,31 2.66313676,31 L28.3370995,31 C28.6012846,31 28.8155654,30.7858103 28.8155654,30.5212092 L28.8155654,27.7412404 C28.8155654,27.4768759 28.6012846,27.2624496 28.3370995,27.2624496 C28.072678,27.2624496 27.8586337,27.4768759 27.8586337,27.7412404 L27.8586337,30.042655 L18.3704403,30.042655 L18.3704403,13.865774 C19.72566,16.4343932 20.643094,19.227379 21.0652698,22.1131409 C21.0931784,22.3041365 21.2331941,22.4596311 21.4202759,22.5074392 C21.459537,22.5176162 21.4992712,22.5223496 21.5387689,22.5223496 C21.6865895,22.5223496 21.8289704,22.4537143 21.9207375,22.3318273 C22.6085174,21.4187404 23.2480486,20.4412782 23.8253769,19.4207414 C24.7922422,20.0796408 25.7309624,20.8142759 26.6216705,21.6094993 C26.7718563,21.7434567 26.9899213,21.7692541 27.1670696,21.6736379 C27.3442179,21.5782584 27.4428438,21.382056 27.4135162,21.1827768 C27.0315476,18.5753431 26.3194068,16.0112207 25.3099692,13.571352 L27.8583972,13.571352 L27.8583972,25.8260772 C27.8583972,26.0906784 28.072678,26.304868 28.336863,26.304868 C28.6012846,26.304868 28.8153289,26.0906784 28.8153289,25.8260772 L28.8153289,13.571352 L30.5217704,13.571352 C30.7859555,13.571352 30.9999998,13.3569257 30.9999998,13.0925612 L30.9999998,6.6775218 C31.0002363,6.41292063 30.786192,6.19873098 30.5217704,6.19873098 Z M24.3847302,1.11782095 C24.8116362,0.915228305 25.2875005,0.901501203 25.7252861,1.07947979 C26.1623622,1.25722172 26.4934804,1.59874182 26.657857,2.04155818 L27.4225036,4.09848894 C27.5871167,4.54154202 27.5589716,5.0172561 27.3437448,5.43782517 C27.1287545,5.85815758 26.7595576,6.15873315 26.3045065,6.2839335 L18.6885503,8.38204544 L18.6885503,6.08110419 C20.4004317,5.03216655 24.6680729,2.86873262 25.7302529,4.36900694 C25.8828038,4.58461666 26.1812832,4.63597482 26.3969831,4.48308367 C26.612683,4.33019246 26.6637698,4.03127362 26.5109824,3.8156639 C25.6912282,2.65761972 23.963737,2.60129142 21.376048,3.64857233 C20.3100837,4.07979176 19.325953,4.60615397 18.6885503,4.97134138 L18.6885503,4.61798763 C18.6885503,4.36167004 18.6353349,4.11742283 18.5397837,3.89565963 L24.3847302,1.11782095 Z M14.1392222,3.74679192 L16.8610141,3.74679192 C17.3411356,3.74679192 17.7316186,4.13777679 17.7316186,4.61798763 L17.7316186,8.5754078 C17.7316186,9.05585535 17.3411356,9.44660351 16.8610141,9.44660351 L14.1392222,9.44660351 C13.6591007,9.44660351 13.2686177,9.05585535 13.2686177,8.5754078 L13.2686177,4.61798763 C13.2686177,4.13754008 13.6591007,3.74679192 14.1392222,3.74679192 Z M13.3350779,12.6135337 C13.7927305,11.8526279 14.290827,11.1151528 14.8267655,10.4041851 L16.1729977,10.4041851 C16.7091728,11.1151528 17.2072692,11.8526279 17.6646854,12.6135337 L13.3350779,12.6135337 Z M3.65649149,5.43782517 C3.44126466,5.0172561 3.4131196,4.54154202 3.57749617,4.09872566 L4.34261579,2.04132153 C4.50675586,1.59874182 4.83787411,1.25722172 5.2749502,1.07947979 C5.71249928,0.901501203 6.18860006,0.915228305 6.61526951,1.11782095 L12.4604526,3.89613301 C12.3649014,4.11765955 12.311686,4.36167004 12.311686,4.61822428 L12.311686,4.99879552 C11.6764119,4.63289808 10.670049,4.09091538 9.57688574,3.64857233 C6.98943316,2.60129142 5.26170547,2.65761972 4.44195126,3.8156639 C4.28916387,4.03127362 4.34025069,4.33019246 4.55595058,4.48308367 C4.77165046,4.63597482 5.07012988,4.58485331 5.22268077,4.36900694 C6.2947944,2.85453221 10.6326799,5.07311108 12.311686,6.11021501 L12.311686,8.38204544 L4.69596629,6.28417016 C4.24067866,6.15873315 3.87148183,5.85815758 3.65649149,5.43782517 Z M12.5264398,9.43429654 C12.7646084,9.88018964 13.1818174,10.216503 13.6815695,10.3459634 C11.4439196,13.4700556 9.90351023,17.059685 9.1809629,20.8327364 C8.6726964,20.0895812 8.19754173,19.3106881 7.76259425,18.5062344 C7.69897226,18.3883709 7.58923021,18.302695 7.45938457,18.2697974 C7.32977543,18.2368998 7.19236131,18.2598571 7.08049066,18.3329893 C6.28367827,18.8529613 5.50342176,19.4233448 4.74989126,20.0358562 C5.52589051,15.9598625 7.12921238,12.0296598 9.42835556,8.58085131 L12.5264398,9.43429654 Z M3.14160264,13.571352 L5.69026708,13.571352 C4.68082946,16.0112207 3.9686887,18.5751064 3.58648364,21.1827768 C3.55739252,21.382056 3.65578194,21.5782584 3.83293025,21.6736379 C4.01031499,21.7690174 4.22814348,21.7434567 4.37832927,21.6094993 C5.26903739,20.8142759 6.2077576,20.0796408 7.17485938,19.4207414 C7.75218768,20.4412782 8.39148242,21.4185037 9.07949882,22.3318273 C9.17126588,22.4537143 9.31364675,22.5225863 9.46146738,22.5225863 C9.50096508,22.5225863 9.54069927,22.5176162 9.5799604,22.5074392 C9.76704222,22.4596311 9.90682144,22.3041365 9.93472995,22.1131409 C10.3571423,19.227379 11.2745763,16.4341566 12.6295595,13.8655373 L12.6295595,30.042655 L3.14160264,30.042655 L3.14160264,13.571352 Z M13.5864912,30.042655 L13.5864912,13.571352 L17.4137451,13.571352 L17.4137451,30.042655 L13.5864912,30.042655 Z M23.9197456,18.3329893 C23.807875,18.2598571 23.6702244,18.2371364 23.5408517,18.2700341 C23.4112426,18.3029317 23.301264,18.3886076 23.2376421,18.5062344 C22.8026946,19.3106881 22.3275399,20.0898178 21.8192734,20.8327364 C21.0967261,17.0594483 19.5563167,13.4700556 17.3184304,10.3462001 C17.8181824,10.2169763 18.2356279,9.88042636 18.4737965,9.43429654 L21.5725903,8.58061465 C23.8712604,12.0301332 25.4745823,15.9603359 26.2505816,20.0358562 C25.4968145,19.4233448 24.716558,18.8529613 23.9197456,18.3329893 Z M30.0433045,12.6137704 L24.8958349,12.6137704 C24.2217728,11.1220163 23.4344209,9.68233053 22.5420572,8.31364677 L26.558285,7.20719741 C26.6129195,7.1920503 26.6668445,7.17477314 26.72006,7.1560759 L30.0433045,7.1560759 L30.0433045,12.6137704 Z"/>
                    </g>
                </g>
            </g>
        </g>
    </g>
</svg>