<?xml version="1.0" encoding="UTF-8"?>
<svg width="107px" height="107px" viewBox="0 0 107 107" version="1.1" xmlns="http://www.w3.org/2000/svg" xmlns:xlink="http://www.w3.org/1999/xlink">
    <!-- Generator: Sketch 52.4 (67378) - http://www.bohemiancoding.com/sketch -->
    <title>icon-product</title>
    <desc>Created with Sketch.</desc>
    <g id="Page-1" stroke="none" stroke-width="1" fill="none" fill-rule="evenodd">
        <g id="Process" transform="translate(-970.000000, -2965.000000)">
            <g id="Make-it-live" transform="translate(445.000000, 2908.000000)">
                <g id="circle-test" transform="translate(468.000000, 0.000000)">
                    <g id="icon-product" transform="translate(57.000000, 57.000000)">
                        <path d="M29.95,11.6405711 L76.9039051,11.6405711 L76.9039051,49.2501247 L53.6631009,49.2501247 L70.9022953,26.264395 C71.1205965,25.9733249 71.1205965,25.5727516 70.9022953,25.2816815 L65.2956573,17.8061194 C65.1408895,17.5998296 64.8980973,17.4784189 64.6404288,17.4784189 L42.2134763,17.4784189 C41.9558078,17.4784189 41.7130155,17.5998296 41.5583479,17.805986 L35.9516098,25.2816815 C35.7333085,25.5727516 35.7333085,25.9733249 35.9516098,26.264395 L53.1908041,49.2501247 L29.95,49.2501247 L29.95,11.6405711 Z" id="Path" stroke="#FA655C" stroke-width="2.1"/>
                        <path d="M45.378503,26.1765927 L52.0937501,44.6413061 L38.2445223,26.1765927 L45.378503,26.1765927 Z" id="Path" stroke="#FA655C" stroke-width="2.1"/>
                        <path d="M38.2445928,24.7464296 L42.6229525,18.9085819 L51.4503325,18.9085819 L45.6125196,24.7464296 L38.2445928,24.7464296 Z" id="Path" stroke="#FA655C" stroke-width="2.1"/>
                        <path d="M47.1516747,26.1765927 L59.7675168,26.1765927 L53.4595957,43.5191889 L47.1516747,26.1765927 Z" id="Path" stroke="#FA655C" stroke-width="2.1"/>
                        <path d="M48.1925443,25.0109824 L53.6915534,19.5119405 L59.1905625,25.0109824 L48.1925443,25.0109824 Z" id="Path" stroke="#FA655C" stroke-width="2.1"/>
                        <path d="M61.298368,24.7464296 L55.4605551,18.9085819 L64.2879351,18.9085819 L68.6662948,24.7464296 L61.298368,24.7464296 Z" id="Path" stroke="#FA655C" stroke-width="2.1"/>
                        <path d="M68.4402269,26.1765927 L54.5909991,44.6413061 L61.3062462,26.1765927 L68.4402269,26.1765927 Z" id="Path" stroke="#FA655C" stroke-width="2.1"/>
                        <path d="M106.999751,57.0668747 L106.999751,49.9335154 C106.999751,48.948666 106.201265,48.1501755 105.216422,48.1501755 L78.4664841,48.1501755 L78.4664841,12.4833788 C78.4664841,11.4985294 77.6679985,10.700039 76.6831549,10.700039 L62.2185719,10.700039 C64.6260663,8.35806797 65.9840715,5.1420375 65.9831798,1.78333984 C65.9831798,0.798490411 65.1846942,2.12878452e-15 64.1998507,2.12878452e-15 C59.8113004,0.00691044186 55.7486536,2.31789595 53.4998755,6.08653886 C51.2510974,2.31789595 47.1884506,0.00691044186 42.7999004,0 C41.8150569,0 41.0165713,0.798490411 41.0165713,1.78333984 C41.0156796,5.1420375 42.3736848,8.35806797 44.7811792,10.700039 L30.3165961,10.700039 C29.3317526,10.700039 28.533267,11.4985294 28.533267,12.4833788 L28.533267,48.1501755 L1.78332918,48.1501755 C0.798485642,48.1501755 0,48.948666 0,49.9335154 L0,57.0668747 C0,58.0517241 0.798485642,58.8502146 1.78332918,58.8502146 L60.344293,58.8502146 L49.6443178,62.4168942 L23.1832794,62.4168942 C22.7102513,62.4168942 22.2568399,62.6050366 21.9224657,62.9394128 L14.2666335,70.5952907 L11.9607888,68.2894323 C11.2643988,67.593261 10.1355514,67.593261 9.43916138,68.2894323 L0.522515451,77.2061315 C-0.173651679,77.9025257 -0.173651679,79.0313798 0.522515451,79.727774 L27.2724532,106.477872 C27.9688433,107.174043 29.0976906,107.174043 29.7940807,106.477872 L38.7107266,97.5611724 C39.4068937,96.8647782 39.4068937,95.735924 38.7107266,95.0395298 L38.4164773,94.7452788 L48.7205533,87.3836519 C55.1393608,87.3836519 59.9534664,87.3836519 63.1628702,87.3836519 C67.7525594,87.3836519 74.6370932,87.3836519 83.8164717,87.3836519 C84.2627498,87.3836519 84.692978,87.2162409 85.0220022,86.9146335 L104.413924,69.1400854 C107.338138,66.4635152 107.847501,62.0432845 105.608754,58.7717476 C106.41415,58.5989866 106.992172,57.8905548 106.999751,57.0668747 Z M62.1882553,3.79494717 C61.4131759,7.10906134 58.8255652,9.69668744 55.5114709,10.4717715 C56.2865503,7.15765735 58.874161,4.57003124 62.1882553,3.79494717 Z M51.4882802,10.4717715 C48.1741859,9.69668744 45.5865752,7.10906134 44.8114958,3.79494717 C48.1255901,4.57003124 50.7132008,7.15765735 51.4882802,10.4717715 Z M32.0999253,14.2667187 L74.8998258,14.2667187 L74.8998258,48.1501755 L55.729037,48.1501755 L51.2707141,48.1501755 L32.0999253,48.1501755 L32.0999253,14.2667187 Z M3.56665837,55.2835349 L3.56665837,51.7168552 L103.433093,51.7168552 L103.433093,55.2835349 L3.56665837,55.2835349 Z M76.2210498,59.8747433 C76.0306794,59.5151774 75.8099924,59.1723303 75.5614409,58.8502146 L91.6096202,58.8502146 L79.5721482,69.5502536 L73.2431129,69.5502536 C76.7373236,67.7007072 78.0705851,63.3687519 76.2210498,59.8747433 Z M28.533267,102.695408 L4.30495665,78.4669527 L10.6999751,72.0718961 L34.9282854,96.3003511 L28.533267,102.695408 Z M102.006429,66.5183529 L83.1227566,83.8167493 L48.149888,83.8167493 C47.7782868,83.8167493 47.4162709,83.9326664 47.1137737,84.1484505 L35.8591832,92.1877465 L16.7882609,73.1167103 L23.9215777,65.983351 L49.9332172,65.983351 C50.1247021,65.9835739 50.3150725,65.9528113 50.4967492,65.8924006 L68.7402068,59.8112118 C70.6263003,59.1783491 72.6684351,60.194407 73.3012941,62.0805118 C73.934153,63.9666165 72.9181012,66.0087636 71.0320077,66.6416263 C70.9642412,66.6643639 70.8958059,66.6850952 70.8267019,66.7038203 L60.3942262,69.5500307 L55.2832047,69.5500307 L55.2832047,73.1167103 L80.2498133,73.1167103 C80.6862831,73.1169332 81.1075947,72.9568785 81.4339439,72.6673087 L95.7273273,59.9627957 C96.5333921,59.2456702 97.5748563,58.8495458 98.6537705,58.8499916 L99.0229196,58.8499916 C101.45761,58.8412979 103.438443,60.8078759 103.447136,63.2423577 C103.451595,64.4891351 102.928188,65.6792915 102.006429,66.5183529 Z" id="Shape" fill="#005B96" fill-rule="nonzero"/>
                        <polygon id="Rectangle" fill="#FA655C" transform="translate(11.568867, 79.360343) rotate(-45.000000) translate(-11.568867, -79.360343) " points="9.79133742 75.5828239 13.3542624 75.5791164 13.3463969 83.1378616 9.78347192 83.1415691"/>
                        <rect id="Rectangle" fill="#FA655C" x="84" y="7" width="4" height="4"/>
                        <rect id="Rectangle" fill="#FA655C" x="87" y="4" width="4" height="4"/>
                        <rect id="Rectangle" fill="#FA655C" x="90" y="7" width="4" height="4"/>
                        <rect id="Rectangle" fill="#FA655C" x="87" y="11" width="4" height="4"/>
                        <rect id="Rectangle" fill="#FA655C" x="103" y="2" width="4" height="4"/>
                        <rect id="Rectangle" fill="#FA655C" x="88" y="21" width="4" height="4"/>
                        <rect id="Rectangle" fill="#FA655C" x="16" y="19" width="4" height="4"/>
                        <rect id="Rectangle" fill="#FA655C" x="16" y="27" width="4" height="4"/>
                        <rect id="Rectangle" fill="#FA655C" x="19" y="23" width="4" height="4"/>
                        <rect id="Rectangle" fill="#FA655C" x="12" y="23" width="4" height="4"/>
                        <rect id="Rectangle" fill="#FA655C" x="0" y="11" width="4" height="4"/>
                        <rect id="Rectangle" fill="#FA655C" x="16" y="2" width="4" height="4"/>
                    </g>
                </g>
            </g>
        </g>
    </g>
</svg>