<?xml version="1.0" encoding="UTF-8"?>
<svg width="117px" height="114px" viewBox="0 0 117 114" version="1.1" xmlns="http://www.w3.org/2000/svg" xmlns:xlink="http://www.w3.org/1999/xlink">
    <!-- Generator: Sketch 52.4 (67378) - http://www.bohemiancoding.com/sketch -->
    <title>icon-planning</title>
    <desc>Created with Sketch.</desc>
    <g id="Page-1" stroke="none" stroke-width="1" fill="none" fill-rule="evenodd">
        <g id="Process" transform="translate(-204.000000, -1147.000000)">
            <g id="Planning" transform="translate(146.000000, 1091.000000)">
                <g id="circle-planning">
                    <g id="icon-planning" transform="translate(58.000000, 56.000000)">
                        <path d="M74.4699129,26.9723547 C78.0706029,26.9723547 81,24.2870092 81,20.9862971 C81,17.6855849 78.0706029,15 74.4699129,15 C70.8692228,15 67.9398257,17.6855849 67.9398257,20.9862971 C67.9398257,22.3343572 68.4287987,23.5794572 69.2523732,24.5812838 L58.5231789,38.3255116 C57.8829691,38.1327605 57.199922,38.026927 56.489971,38.026927 C54.7741253,38.026927 53.211606,38.6377443 52.0450712,39.6333454 L44.893581,35.9133698 C44.9889203,35.5072756 45.0401162,35.0863361 45.0401162,34.6546216 C45.0401162,31.3539094 42.1107191,28.668564 38.510029,28.668564 C34.909339,28.668564 31.9799419,31.3539094 31.9799419,34.6546216 C31.9799419,35.0863361 32.0311378,35.5072756 32.1264771,35.9133698 L24.9749868,39.6333454 C23.8084521,38.6377443 22.2459328,38.0271664 20.5300871,38.0271664 C16.9293971,38.0271664 14,40.7127513 14,44.0134635 C14,47.3141757 16.9293971,49.9997606 20.5300871,49.9997606 C24.1307772,49.9997606 27.0601743,47.3141757 27.0601743,44.0134635 C27.0601743,43.581749 27.0089784,43.1608095 26.9136391,42.7547153 L34.0651293,39.0347397 C35.2316641,40.0303408 36.7941833,40.6411581 38.510029,40.6411581 C40.2258747,40.6411581 41.7881328,40.0303408 42.9549288,39.0349791 L50.106419,42.7549547 C50.0110797,43.1610489 49.9598838,43.5819885 49.9598838,44.0137029 C49.9598838,47.3144151 52.8892809,50 56.489971,50 C60.0909222,50 63.0203193,47.3144151 63.0203193,44.0137029 C63.0203193,42.6654033 62.5310852,41.4200639 61.7075106,40.4182373 L72.4367049,26.6740096 C73.0766535,26.8665212 73.7599618,26.9723547 74.4699129,26.9723547 Z M74.4699129,18.5916346 C75.9101889,18.5916346 77.0819477,19.6657727 77.0819477,20.9862971 C77.0819477,22.3065819 75.9101889,23.3807201 74.4699129,23.3807201 C73.0296368,23.3807201 71.857878,22.3065819 71.857878,20.9862971 C71.8576168,19.6657727 73.0293756,18.5916346 74.4699129,18.5916346 Z M20.5293035,46.4076471 C19.0890275,46.4076471 17.9172687,45.3335089 17.9172687,44.0129846 C17.9172687,42.6924603 19.0890275,41.6183221 20.5293035,41.6183221 C21.9695795,41.6183221 23.1413384,42.6924603 23.1413384,44.0129846 C23.1413384,45.3335089 21.9695795,46.4076471 20.5293035,46.4076471 Z M38.5095066,37.0490446 C37.0692306,37.0490446 35.8974718,35.9749064 35.8974718,34.6543821 C35.8974718,33.3340973 37.0692306,32.2599591 38.5095066,32.2599591 C39.9497827,32.2599591 41.1215415,33.3340973 41.1215415,34.6543821 C41.1218027,35.9749064 39.9497827,37.0490446 38.5095066,37.0490446 Z M56.4897098,46.4076471 C55.0494337,46.4076471 53.8776749,45.3335089 53.8776749,44.0129846 C53.8776749,42.6924603 55.0494337,41.6183221 56.4897098,41.6183221 C57.930247,41.6183221 59.1020058,42.6924603 59.1020058,44.0129846 C59.1020058,45.3335089 57.9299858,46.4076471 56.4897098,46.4076471 Z" id="Shape" fill="#FA655C" fill-rule="nonzero"/>
                        <path d="M95.2934393,84.7331232 L83.3507,84.7331232 L18.3007019,84.7331232 L4.82729137,84.7331232 C4.0475069,84.7331232 3.4131214,84.0980257 3.4131214,83.3173661 L3.4131214,12.832709 C3.4131214,12.0520494 4.0475069,11.4169519 4.82729137,11.4169519 L12.872246,11.4169519 C13.8147226,11.4169519 14.5788067,10.6522381 14.5788067,9.70847597 C14.5788067,8.76471385 13.8147226,8 12.872246,8 L4.82729137,8 C2.16551176,8 0,10.1679421 0,12.832709 L0,83.3173661 C0,85.982133 2.16551176,88.1500751 4.82729137,88.1500751 L16.5941412,88.1500751 L16.5941412,91.910089 C16.5941412,94.0520623 18.3348331,95.7947078 20.4744051,95.7947078 L37.5568502,95.7947078 L29.5155362,111.512231 C29.0859379,112.352118 29.4174658,113.381532 30.256411,113.81184 C30.5053414,113.939634 30.7711097,114 31.0330099,114 C31.6530603,114 32.2512667,113.660583 32.5532142,113.069906 L41.3916058,95.7947078 L60.259796,95.7947078 L69.0981876,113.069906 C69.4003627,113.660583 69.9983415,114 70.6183919,114 C70.8802921,114 71.1460605,113.939178 71.3949908,113.81184 C72.233936,113.381532 72.5656914,112.352118 72.1358657,111.512231 L64.0945517,95.7947078 L81.1769967,95.7947078 C83.3165688,95.7947078 85.0572607,94.0522901 85.0572607,91.910089 L85.0572607,88.1500751 L95.2934393,88.1500751 C96.2359159,88.1500751 97,87.3853613 97,86.4415991 C97,85.497837 96.2359159,84.7331232 95.2934393,84.7331232 Z M81.6441393,91.910089 C81.6441393,92.167955 81.4345736,92.3777559 81.1769967,92.3777559 L20.4744051,92.3777559 C20.2168282,92.3777559 20.0072626,92.167955 20.0072626,91.910089 L20.0072626,88.1500751 L81.6441393,88.1500751 L81.6441393,91.910089 Z" id="Shape" fill="#005B96" fill-rule="nonzero"/>
                        <path d="M18.7339107,10.9050485 L42.4704542,10.9050485 L58.2492724,10.9050485 L97.0953447,10.9050485 C97.8876263,10.9050485 98.5321787,11.5311714 98.5321787,12.3007995 L98.5321787,28.3156665 C98.5321787,29.2460923 99.3085083,30 100.266089,30 C101.22367,30 102,29.2460923 102,28.3156665 L102,12.3007995 C102,9.67368847 99.799783,7.5363816 97.0953447,7.5363816 L59.9834143,7.5363816 L59.9834143,4.22565577 C59.9834143,1.89566116 58.0319556,0 55.633148,0 L45.0868098,0 C42.6882333,0 40.7365435,1.89566116 40.7365435,4.22565577 L40.7365435,7.5363816 L18.7339107,7.5363816 C17.7763296,7.5363816 17,8.29028926 17,9.22071506 C17,10.1511409 17.7763296,10.9050485 18.7339107,10.9050485 Z M44.2043648,4.22565577 C44.2043648,3.75314409 44.6001588,3.36866691 45.0868098,3.36866691 L55.633148,3.36866691 C56.1195678,3.36866691 56.515593,3.75314409 56.515593,4.22565577 L56.515593,7.5363816 L44.204596,7.5363816 L44.204596,4.22565577 L44.2043648,4.22565577 Z" id="Shape" fill="#005B96" fill-rule="nonzero"/>
                        <path d="M16.8161006,59 C15.8131288,59 15,59.8261148 15,60.8456541 L15,77.1543459 C15,78.1738852 15.8131288,79 16.8161006,79 L24.1838994,79 C25.1868712,79 26,78.1738852 26,77.1543459 L26,60.8456541 C26,59.8261148 25.1868712,59 24.1838994,59 L16.8161006,59 Z M22.3677989,75.3089379 L18.6322011,75.3089379 L18.6322011,62.6915543 L22.3677989,62.6915543 L22.3677989,75.3089379 Z" id="Shape" fill="#FA655C" fill-rule="nonzero"/>
                        <path d="M32.8161006,50 C31.8131288,50 31,50.8139815 31,51.8185467 L31,77.1814533 C31,78.1860185 31.8131288,79 32.8161006,79 L40.1838994,79 C41.1868712,79 42,78.1860185 42,77.1814533 L42,51.8185467 C42,50.8139815 41.1868712,50 40.1838994,50 L32.8161006,50 Z M38.368041,75.3629067 L34.6324433,75.3629067 L34.6324433,53.6370933 L38.368041,53.6370933 L38.368041,75.3629067 Z" id="Shape" fill="#FA655C" fill-rule="nonzero"/>
                        <path d="M51.8161006,59 C50.8131288,59 50,59.8261148 50,60.8456541 L50,77.1543459 C50,78.1738852 50.8131288,79 51.8161006,79 L59.1838994,79 C60.1868712,79 61,78.1738852 61,77.1543459 L61,60.8456541 C61,59.8261148 60.1868712,59 59.1838994,59 L51.8161006,59 Z M57.3677989,75.3089379 L53.6322011,75.3089379 L53.6322011,62.6915543 L57.3677989,62.6915543 L57.3677989,75.3089379 Z" id="Shape" fill="#FA655C" fill-rule="nonzero"/>
                        <path d="M70.8161006,70 C69.8131288,70 69,70.8161926 69,71.8234865 L69,77.1765135 C69,78.1838074 69.8131288,79 70.8161006,79 L78.1838994,79 C79.1868712,79 80,78.1838074 80,77.1765135 C80,76.1692195 79.1868712,75.353027 78.1838994,75.353027 L72.6322011,75.353027 L72.6322011,71.8234865 C72.6322011,70.8161926 71.8190724,70 70.8161006,70 Z" id="Path" fill="#FA655C"/>
                        <path d="M116.134164,85.3062721 L106.394469,68.4107703 C108.862045,65.7766716 110.65891,62.5581246 111.618687,58.9707266 C113.152745,53.2371016 112.365456,47.2482055 109.401919,42.107417 C103.284249,31.4946224 89.686433,27.8462405 79.0904088,33.972974 C68.4941582,40.0997074 64.8508553,53.718172 70.9685257,64.3305132 C73.9320623,69.4713016 78.7171372,73.1484752 84.4420688,74.6850894 C86.3539257,75.1981254 88.2936251,75.4518096 90.221101,75.4518096 C91.90569,75.4518096 93.5805455,75.2577491 95.2185038,74.8737089 L104.956162,91.7696642 C106.149771,93.8410782 108.323303,95.0002267 110.555689,95 C111.649698,95 112.757969,94.7213782 113.771846,94.1355695 C115.762929,92.9845824 117,90.8383554 117,88.5345676 C117,87.4057977 116.700749,86.2897234 116.134164,85.3062721 Z M85.3208076,71.4003442 C80.4718985,70.0990509 76.4188797,66.9843352 73.9087469,62.6302171 C68.7273115,53.641772 71.8133101,42.107417 80.7879005,36.9178867 C83.7403453,35.2107895 86.9666887,34.4000883 90.1534186,34.4000883 C96.6534151,34.4000883 102.984319,37.7764229 106.461245,43.8077131 C108.971152,48.1618312 109.638015,53.2341544 108.338695,58.0906533 C107.039375,62.9471523 103.929382,67.0058723 99.5818656,69.5198167 C95.2345756,72.0337611 90.1699431,72.701184 85.3208076,71.4003442 Z M112.074807,91.1902033 C110.61409,92.0349104 108.739809,91.5320762 107.897062,90.0698216 L98.5283749,73.8140844 C99.4673262,73.4302709 100.38681,72.9813928 101.280036,72.4649562 C102.173941,71.9480662 103.020537,71.372686 103.822086,70.7496975 L113.19349,87.0061148 C113.462408,87.4733561 113.604564,88.0020348 113.604564,88.5347943 C113.604564,89.6270645 113.018285,90.6447483 112.074807,91.1902033 Z" id="Shape" fill="#FA655C" fill-rule="nonzero"/>
                        <path d="M105.276093,57.7457467 C106.465439,53.9150467 106.182197,49.8139338 104.478478,46.1979471 C104.081805,45.3561633 103.078217,44.995463 102.236578,45.391874 C101.394714,45.7885096 101.033979,46.792002 101.430652,47.6335612 C102.774535,50.4859234 102.99758,53.7221192 102.058457,56.7465215 C101.114167,59.7875439 99.074197,62.339622 96.3143298,63.9329021 C93.3938615,65.6191647 89.9911408,66.0665588 86.7339718,65.1940055 C83.4765782,64.3212276 80.7537727,62.2322653 79.0677987,59.3120753 C75.5869113,53.2837089 77.6601248,45.5477432 83.6890658,42.0671876 C88.0971715,39.5227457 93.5677149,39.8627832 97.626766,42.9334522 C98.3689001,43.4949408 99.4252732,43.3487292 99.9865907,42.6066658 C100.547908,41.8648271 100.401683,40.8083301 99.6595486,40.2470661 C94.5178442,36.3568483 87.5875158,35.9262988 82.0042148,39.1494681 C78.304326,41.2853708 75.6576656,44.7342585 74.5518768,48.8605261 C73.4460881,52.9867937 74.0136949,57.2967804 76.1498011,60.9963166 C78.2859074,64.6960774 81.7351238,67.342261 85.8617846,68.448169 C87.239809,68.8174039 88.6382735,69 90.0275287,69 C92.7988514,69 95.5344601,68.2732091 97.9987316,66.850397 C101.495342,64.8321823 104.079784,61.5989062 105.276093,57.7457467 Z" id="Path" fill="#FA655C"/>
                    </g>
                </g>
            </g>
        </g>
    </g>
</svg>