<?xml version="1.0" encoding="UTF-8"?>
<svg width="107px" height="86px" viewBox="0 0 107 86" version="1.1" xmlns="http://www.w3.org/2000/svg" xmlns:xlink="http://www.w3.org/1999/xlink">
    <!-- Generator: Sketch 52.4 (67378) - http://www.bohemiancoding.com/sketch -->
    <title>icon-chat</title>
    <desc>Created with Sketch.</desc>
    <g id="Page-1" stroke="none" stroke-width="1" fill="none" fill-rule="evenodd">
        <g id="Process---Mobile" transform="translate(-127.000000, -969.000000)">
            <g id="Understand-the-idea" transform="translate(25.000000, 923.000000)">
                <g id="circle-idea" transform="translate(66.000000, 0.000000)">
                    <g id="icon-chat" transform="translate(89.500000, 89.000000) scale(-1, 1) translate(-89.500000, -89.000000) translate(36.000000, 46.000000)">
                        <path d="M98.5771441,28.267582 C93.3132499,23.4041894 85.9497125,19.9408576 77.8427768,18.5152802 C76.8644821,18.3438259 75.9210491,18.9423491 75.7361613,19.8533399 C75.5512734,20.7643306 76.1946543,21.6424183 77.1734299,21.8145441 C92.6114454,24.5291623 103.393605,34.5178293 103.393605,46.1050948 C103.393605,55.6483388 96.0961848,64.2255297 84.3494348,68.4895037 C83.7498115,68.707291 83.3201696,69.2059857 83.2223161,69.7982416 C82.5096925,74.1069818 83.4824574,78.4920482 85.8595526,82.1449646 C80.6692289,80.854357 76.4651339,77.1461545 74.8299944,72.12138 C74.5828361,71.3616987 73.7956803,70.86569 72.9481775,70.935749 C71.6746392,71.0387111 70.3910029,71.0910875 69.1328519,71.0910875 C57.9147995,71.0910875 47.3848472,67.0621356 40.9652236,60.3134174 C40.3052533,59.6193185 39.1656324,59.5548553 38.4198299,60.1694943 C37.6742679,60.7841333 37.6050251,61.8450906 38.2652358,62.5391895 C45.3587744,69.9963317 56.8982769,74.4485474 69.1328519,74.4485474 C70.0315656,74.4485474 70.9418197,74.423926 71.8527951,74.3751309 C73.1599931,77.5139082 75.4087006,80.308434 78.289489,82.3443977 C81.6734897,84.7360283 85.7068819,86 89.9530514,86 C90.6808219,86 91.3371858,85.5926282 91.6172825,84.9672453 C91.8973792,84.3418625 91.746151,83.6211278 91.234043,83.139668 C87.9089467,80.0147682 86.2391858,75.6245536 86.6647404,71.2388157 C92.4878663,68.9629056 97.4252616,65.5908967 100.992708,61.4439861 C104.922716,56.8758262 107,51.5719349 107,46.1050948 C107,39.6209445 104.008856,33.2860892 98.5771441,28.267582 Z" id="Path" fill="#005B96"/>
                        <path d="M74.8195489,28.0424619 C74.8195489,20.4786507 70.8743022,13.3918546 63.7103898,8.08733193 C56.6671387,2.87205586 47.3265712,0 37.4097744,0 C27.4922651,0 18.1514601,2.87205586 11.1086841,8.08733193 C3.94500917,13.3918546 0,20.4786507 0,28.0424619 C0,33.4512901 2.05219334,38.6991201 5.9344966,43.2185831 C9.45885363,47.321267 14.3368507,50.6577149 20.0894052,52.909474 C20.5098198,57.2486723 18.8602269,61.5922997 15.5752924,64.6840394 C15.0693697,65.1601686 14.9199681,65.8734766 15.1966817,66.4922232 C15.4733953,67.1109698 16.1220689,67.5140187 16.8408116,67.5140187 C21.0359318,67.5140187 25.0203697,66.2634597 28.3634972,63.8972081 C31.2094903,61.8830707 33.4310371,59.1179779 34.7224463,56.0125079 C35.6224185,56.0607852 36.5216783,56.0851453 37.4095369,56.0851453 C47.3265712,56.0851453 56.6671387,53.2130895 63.7101522,47.9978134 C70.8743022,42.6930693 74.8195489,35.6062732 74.8195489,28.0424619 Z M33.6405318,52.6094019 C32.8006527,52.5409722 32.0256172,53.0306102 31.7814442,53.7824515 C30.1660545,58.7536836 26.0129757,62.4225362 20.8851051,63.6994484 C23.2334889,60.0855168 24.1945044,55.7467614 23.4904881,51.4837438 C23.3938165,50.8977726 22.969364,50.4043699 22.3769832,50.1888937 C10.7721149,45.9706101 3.56283566,37.4844369 3.56283566,28.0424619 C3.56283566,14.4114355 18.7464536,3.32183189 37.4097744,3.32183189 C56.0730952,3.32183189 71.2567132,14.4114355 71.2567132,28.0424619 C71.2567132,41.6734884 56.0730952,52.763092 37.4097744,52.763092 C36.1668198,52.763092 34.8986879,52.7114929 33.6405318,52.6094019 Z" id="Shape" fill="#FA655C" fill-rule="nonzero"/>
                    </g>
                </g>
            </g>
        </g>
    </g>
</svg>