<?xml version="1.0" encoding="UTF-8"?>
<svg width="33px" height="38px" viewBox="0 0 33 38" version="1.1" xmlns="http://www.w3.org/2000/svg" xmlns:xlink="http://www.w3.org/1999/xlink">
    <!-- Generator: Sketch 52.3 (67297) - http://www.bohemiancoding.com/sketch -->
    <title>icon-process-sketching</title>
    <desc>Created with Sketch.</desc>
    <g id="Page-1" stroke="none" stroke-width="1" fill="none" fill-rule="evenodd">
        <g id="Home" transform="translate(-266.000000, -3658.000000)" fill="#FFFFFF">
            <g id="OUR-CREATIVE-PROCESS" transform="translate(92.000000, 2909.000000)">
                <g id="icon-process-sketch" transform="translate(157.000000, 731.000000)">
                    <g id="icon-process-sketching" transform="translate(17.000000, 18.000000)">
                        <path d="M15.299758,6 C13.5228517,6 11.7846559,6.5157883 10.2730631,7.49158883 C10.005184,7.66453481 9.91983999,8.03562632 10.0824539,8.32052572 C10.2449924,8.60542513 10.5939898,8.69611142 10.8617935,8.52324569 C12.1959069,7.66204695 13.7305146,7.20676968 15.299758,7.20676968 C20.0228816,7.20676968 23.8653245,11.293431 23.8653245,16.3165686 C23.8653245,16.9745659 23.7990716,17.6311185 23.6684522,18.2678487 C23.6016711,18.5934365 23.7956759,18.9150117 24.1018127,18.9860359 C24.1425605,18.9955058 24.1832328,19 24.2233015,19 C24.4842384,18.9999197 24.7192174,18.8073117 24.7770944,18.5250607 C24.9249938,17.803904 25,17.0608382 25,16.3164884 C25.0000755,10.6280504 20.6485114,6 15.299758,6 Z" id="Path"/>
                        <path d="M32.0406478,4.34446026 C32.5696657,4.34446026 33,3.92720327 33,3.41442692 L33,0.93003334 C33,0.417182779 32.5696657,0 32.0406478,0 L29.477935,0 C28.948917,0 28.5185828,0.417182779 28.5185828,0.93003334 L28.5185828,1.62694604 L4.48134065,1.62694604 L4.48134065,0.93003334 C4.48134065,0.417182779 4.05100639,0 3.52206503,0 L0.959275619,0 C0.430334258,0 5.43979507e-16,0.417182779 5.43979507e-16,0.93003334 L5.43979507e-16,3.41435271 C5.43979507e-16,3.92720327 0.430334258,4.34438605 0.959352178,4.34438605 L1.66506668,4.34438605 L1.66506668,25.6450515 L0.959352178,25.6450515 C0.430334258,25.6450515 0,26.0623085 0,26.5750848 L0,29.0594784 C0,29.572329 0.430334258,29.9895117 0.959352178,29.9895117 L3.52206503,29.9895117 C4.05108295,29.9895117 4.48141721,29.5722547 4.48141721,29.0594784 L4.48141721,28.3753313 L11.1044,28.3753313 L11.1044,31.3619622 L11.1044,33.338181 C11.1044,33.3509466 11.1054718,33.3634895 11.1063905,33.3760325 C11.1055484,33.3885754 11.1044,33.4010441 11.1044,33.413884 L11.1044,34.9831621 C11.1044,36.6466237 12.5004408,38 14.2163422,38 L18.7834281,38 C20.4993295,38 21.8953703,36.6466237 21.8953703,34.9831621 L21.8953703,33.413884 C21.8953703,33.4011184 21.8942985,33.3885754 21.8933798,33.3760325 C21.8942219,33.3634895 21.8953703,33.3509466 21.8953703,33.338181 L21.8953703,31.3619622 L21.8953703,28.3753313 L28.5185828,28.3753313 L28.5185828,29.0594784 C28.5185828,29.572329 28.948917,29.9895117 29.477935,29.9895117 L32.0406478,29.9895117 C32.5696657,29.9895117 33,29.5722547 33,29.0594784 L33,26.5750848 C33,26.0622343 32.5696657,25.6450515 32.0406478,25.6450515 L31.3349333,25.6450515 L31.3349333,4.34446026 L32.0406478,4.34446026 Z M1.1512073,3.22836088 L1.1512073,1.11609938 L3.33013335,1.11609938 L3.33013335,3.22836088 L1.1512073,3.22836088 Z M3.33013335,28.8734866 L1.1512073,28.8734866 L1.1512073,26.7611509 L3.33013335,26.7611509 L3.33013335,28.8734866 Z M18.7834281,36.8839006 L14.2163422,36.8839006 C13.1351857,36.8839006 12.2556073,36.0312031 12.2556073,34.9830879 L12.2556073,33.9718594 L20.744163,33.9718594 L20.7440865,34.9830879 L20.744163,34.9830879 C20.744163,36.0312031 19.8645846,36.8839006 18.7834281,36.8839006 Z M18.6429436,12.2192027 L20.0784119,13.863219 L19.3113742,13.863219 L17.4638691,13.863219 L15.5360543,13.863219 L13.6885492,13.863219 L12.9215115,13.863219 L14.3569798,12.2192027 L18.6429436,12.2192027 Z M15.3313374,11.1031775 L16.4999234,9.76486765 L17.6685095,11.1031775 L15.3313374,11.1031775 Z M18.7357323,14.9792442 L18.7357323,30.8039125 L18.0394345,30.8039125 L18.0394345,14.9792442 L18.7357323,14.9792442 Z M16.8882272,14.9792442 L16.8882272,30.8039125 L16.1116197,30.8039125 L16.1116197,14.9792442 L16.8882272,14.9792442 Z M14.9603358,14.9792442 L14.9603358,30.8039125 L14.264038,30.8039125 L14.264038,14.9792442 L14.9603358,14.9792442 Z M13.1128307,14.9792442 L13.1128307,30.8039125 L12.2556839,30.8039125 L12.2556839,14.9792442 L13.1128307,14.9792442 Z M13.6884726,31.9200119 L15.5359778,31.9200119 L17.4637926,31.9200119 L19.3112977,31.9200119 L20.7440865,31.9200119 L20.7440865,32.7801313 L12.2556839,32.7801313 L12.2556839,31.9200119 L13.6884726,31.9200119 Z M20.744163,30.8039125 L19.8870162,30.8039125 L19.8870162,14.9792442 L20.744163,14.9792442 L20.744163,30.8039125 Z M28.5185828,26.5750848 L28.5185828,27.2592319 L21.8953703,27.2592319 L21.8953703,22.9768926 C22.7833701,22.41105 23.5837873,21.7027076 24.2601799,20.863221 C24.455863,20.6203035 24.4114592,20.2696948 24.1608838,20.0799178 C23.910385,19.8900666 23.548647,19.9333361 23.3528874,20.1761051 C22.920333,20.7130025 22.4302832,21.1892633 21.8953703,21.6013992 L21.8953703,14.4211203 C21.8953703,14.3978898 21.8934564,14.375179 21.8906237,14.3526907 C21.8899347,14.3472728 21.8889394,14.3418548 21.8880973,14.3364368 C21.8849584,14.3166947 21.8809008,14.2973236 21.8756948,14.2783237 C21.8745465,14.2740932 21.8736278,14.2698628 21.8723263,14.2657065 C21.8653595,14.2424761 21.8570912,14.2198394 21.8472151,14.1979449 C21.8460668,14.1953473 21.8446122,14.1928981 21.8434638,14.1903004 C21.8342768,14.1707809 21.8239414,14.1519294 21.8125342,14.1336716 C21.8097781,14.1292185 21.8070986,14.1248396 21.8042659,14.1204607 C21.7909448,14.1003475 21.7766284,14.0809764 21.7607808,14.0627186 C21.7601683,14.0619764 21.759709,14.0612343 21.7590965,14.0604921 L19.349194,11.3004506 L16.9392916,8.5404091 C16.8298898,8.4151281 16.6691939,8.34291339 16.4999234,8.34291339 C16.330653,8.34291339 16.1699571,8.4151281 16.0605553,8.5404091 L11.2406738,14.0605663 C11.2400613,14.0613085 11.239602,14.0620507 11.2390661,14.0627186 C11.2232951,14.0809764 11.2089021,14.1003475 11.195581,14.1205349 C11.1926717,14.1249138 11.1900688,14.1292927 11.1873127,14.1336716 C11.1759055,14.1519294 11.1655701,14.1708551 11.1563831,14.1903746 C11.1552347,14.1928981 11.1537801,14.1953473 11.1526317,14.1978707 C11.1427557,14.2197652 11.1344874,14.2424019 11.1275206,14.2657065 C11.1262957,14.2698628 11.125377,14.274019 11.1242286,14.2781752 C11.1190227,14.2972494 11.1148885,14.3166947 11.1117496,14.3365111 C11.1109075,14.341929 11.1099122,14.3472728 11.1092232,14.3526165 C11.1063905,14.3751047 11.1044766,14.3978156 11.1044766,14.4210461 L11.1044766,21.5934578 C9.0985723,20.0488944 7.80971316,17.6651413 7.80971316,14.9945332 C7.80971316,13.3632825 8.29118837,11.7810161 9.20192602,10.4186593 C9.37487124,10.1600817 9.29877228,9.81451989 9.03196657,9.64686006 C8.76539054,9.47934867 8.40878193,9.55289931 8.23591327,9.81162537 C7.20390726,11.3550755 6.6584293,13.1473064 6.6584293,14.994459 C6.6584293,18.3252416 8.42861054,21.2623686 11.1044766,22.9694708 L11.1044766,27.2590093 L4.48141721,27.2590093 L4.48141721,26.5748622 C4.48141721,26.0620116 4.05108295,25.6448288 3.52206503,25.6448288 L2.81635053,25.6448288 L2.81635053,4.34446026 L3.52206503,4.34446026 C4.05108295,4.34446026 4.48141721,3.92720327 4.48141721,3.41442692 L4.48141721,2.74304542 L28.5185828,2.74304542 L28.5185828,3.41442692 C28.5185828,3.92727749 28.948917,4.34446026 29.477935,4.34446026 L30.1836495,4.34446026 L30.1836495,25.6451257 L29.477935,25.6451257 C28.9489936,25.6450515 28.5185828,26.0623085 28.5185828,26.5750848 Z M31.8487927,26.7611509 L31.8487927,28.8734866 L29.6698666,28.8734866 L29.6698666,26.7611509 L31.8487927,26.7611509 Z M29.6698666,3.22836088 L29.6698666,1.11609938 L31.8487927,1.11609938 L31.8487927,3.22836088 L29.6698666,3.22836088 Z" id="Shape" fill-rule="nonzero"/>
                    </g>
                </g>
            </g>
        </g>
    </g>
</svg>