<?xml version="1.0" encoding="UTF-8"?>
<svg width="32px" height="30px" viewBox="0 0 32 30" version="1.1" xmlns="http://www.w3.org/2000/svg" xmlns:xlink="http://www.w3.org/1999/xlink">
    <!-- Generator: Sketch 52.3 (67297) - http://www.bohemiancoding.com/sketch -->
    <title>icon-process-wrench</title>
    <desc>Created with Sketch.</desc>
    <g id="Page-1" stroke="none" stroke-width="1" fill="none" fill-rule="evenodd">
        <g id="Home" transform="translate(-567.000000, -3846.000000)" fill="#FFFFFF" fill-rule="nonzero">
            <g id="OUR-CREATIVE-PROCESS" transform="translate(92.000000, 2909.000000)">
                <g id="icon-process-wrench" transform="translate(457.000000, 918.000000)">
                    <g id="wrench" transform="translate(18.000000, 19.000000)">
                        <path d="M14.2507879,8.72397758 L14.1134876,8.60987792 C14.7873928,6.32788456 14.1739502,3.77728157 12.2731598,1.98258888 C10.3837063,0.204535726 7.71327853,-0.377847995 5.30863394,0.236626257 L9.37977659,4.07798174 L8.3116055,7.84208223 L4.32233916,8.84877409 L0.248677235,5.00979569 C-0.398775526,7.27752659 0.217186342,9.79841612 2.10663993,11.5812234 C4.08552765,13.4496055 6.93734293,13.9975216 9.43016202,13.232103 L9.45283546,13.2534967 L26.2059906,29.0598663 C26.868559,29.6838488 27.7351884,30 28.604337,30 C29.4734856,30 30.3388554,29.6838488 31.0052027,29.0598663 C32.3315991,27.8130897 32.3315991,25.7866321 31.0052027,24.5303472 L14.2507879,8.72397758 Z M28.9985408,29 C28.4482252,29 28,28.5519922 28,28 C28,27.4460641 28.4482252,27 28.9985408,27 C29.5527455,27 29.9999984,27.4460641 29.9999984,28 C30.0009707,28.5519922 29.5537178,29 28.9985408,29 Z" id="icon-process-wrench" transform="translate(16.000000, 15.000000) scale(-1, 1) translate(-16.000000, -15.000000) "/>
                    </g>
                </g>
            </g>
        </g>
    </g>
</svg>