<?xml version="1.0" encoding="UTF-8"?>
<svg width="90px" height="90px" viewBox="0 0 90 90" version="1.1" xmlns="http://www.w3.org/2000/svg" xmlns:xlink="http://www.w3.org/1999/xlink">
    <!-- Generator: Sketch 52.4 (67378) - http://www.bohemiancoding.com/sketch -->
    <title>icon-gear</title>
    <desc>Created with Sketch.</desc>
    <g id="Page-1" stroke="none" stroke-width="1" fill="none" fill-rule="evenodd">
        <g id="Process" transform="translate(-214.000000, -2613.000000)">
            <g id="Fix-and-revise" transform="translate(148.000000, 2547.000000)">
                <g id="circle-fix">
                    <g id="icon-gear" transform="translate(66.000000, 66.000000)">
                        <path d="M85.8610568,36.6340509 L82.0229354,36.6340509 C81.0715068,32.395773 79.4178669,28.4016047 77.0965362,24.7346771 L79.8086888,22.0223483 C81.4225245,20.4085127 81.4225245,17.7828376 79.8086888,16.169002 L73.8308219,10.191135 C73.0491781,9.40931507 72.0096869,8.97886497 70.9041487,8.97886497 C69.7986106,8.97886497 68.7591194,9.40949119 67.9774755,10.191135 L65.2653229,12.9032877 C61.5983953,10.5819569 57.604227,8.92831703 53.3659491,7.97688845 L53.3659491,4.13894325 C53.3659491,1.85671233 51.5092368,0 49.2270059,0 L40.7729941,0 C38.4907632,0 36.6340509,1.85671233 36.6340509,4.13894325 L36.6340509,7.97706458 C32.395773,8.92849315 28.4016047,10.5821331 24.7346771,12.9034638 L22.0225245,10.1913112 C21.2408806,9.40949119 20.2013894,8.97886497 19.0958513,8.97886497 C17.9903131,8.97886497 16.9508219,9.40949119 16.1691781,10.191135 L10.1913112,16.1691781 C8.57747554,17.7830137 8.57747554,20.4086888 10.1913112,22.0225245 L12.9036399,24.7348532 C10.5823092,28.4017808 8.92866928,32.3959491 7.9772407,36.6340509 L4.13894325,36.6340509 C1.85671233,36.6340509 0,38.4907632 0,40.7729941 L0,49.2270059 C0,51.5092368 1.85671233,53.3659491 4.13894325,53.3659491 L7.9772407,53.3659491 C8.92866928,57.604227 10.5823092,61.5982192 12.9036399,65.2651468 L10.1913112,67.9774755 C9.40966732,68.7591194 8.9790411,69.7986106 8.9790411,70.9041487 C8.9790411,72.0096869 9.40966732,73.049002 10.1913112,73.8308219 L16.1691781,79.8086888 C16.9508219,80.5903327 17.9903131,81.0209589 19.0958513,81.0209589 C20.2013894,81.0209589 21.2408806,80.5903327 22.0225245,79.8086888 L24.7348532,77.0963601 C28.4017808,79.4176908 32.395773,81.0711546 36.634227,82.0227593 L36.634227,85.8610568 C36.634227,88.1432877 38.4909393,90 40.7731703,90 L49.227182,90 C51.5094129,90 53.3661252,88.1432877 53.3661252,85.8610568 L53.3661252,82.0229354 C57.6044031,81.0715068 61.5983953,79.4178669 65.265499,77.0965362 L67.9776517,79.808865 C68.7592955,80.5905088 69.7987867,81.021135 70.9043249,81.021135 C72.009863,81.021135 73.0493542,80.5905088 73.830998,79.808865 L79.808865,73.830998 C80.5905088,73.0493542 81.021135,72.009863 81.021135,70.9043249 C81.021135,69.7987867 80.5905088,68.7592955 79.808865,67.9776517 L77.0967123,65.265499 C79.4180431,61.5985714 81.0715068,57.6045793 82.0231115,53.3661252 L85.8610568,53.3661252 C88.1432877,53.3661252 90,51.5094129 90,49.227182 L90,40.7731703 C90,38.4907632 88.1432877,36.6340509 85.8610568,36.6340509 Z M87.3581213,49.2270059 C87.3581213,50.0525049 86.6865558,50.7240705 85.8610568,50.7240705 L80.9501566,50.7240705 C80.3180431,50.7240705 79.7745205,51.1719569 79.6536986,51.7922701 C78.7484149,56.4381018 76.95,60.7818787 74.3086497,64.7027789 C73.9555186,65.2269276 74.0231507,65.9279061 74.4701566,66.3747358 L77.9407045,69.8452838 C78.2233855,70.1281409 78.3792564,70.5039922 78.3792564,70.9039726 C78.3792564,71.3037769 78.2235616,71.6798043 77.9407045,71.9624853 L71.9628376,77.9403523 C71.6801566,78.2230333 71.3041292,78.3789041 70.9041487,78.3789041 C70.5041683,78.3789041 70.128317,78.2232094 69.845636,77.9403523 L66.3749119,74.4696282 C65.9280822,74.0226223 65.2269276,73.9548141 64.702955,74.3081213 C60.7817025,76.9496477 56.4379256,78.7478865 51.7922701,79.6531703 C51.1717808,79.7739922 50.7240705,80.3175147 50.7240705,80.9496282 L50.7240705,85.8610568 C50.7240705,86.6865558 50.0525049,87.3581213 49.2270059,87.3581213 L40.7729941,87.3581213 C39.9474951,87.3581213 39.2759295,86.6865558 39.2759295,85.8610568 L39.2759295,80.9501566 C39.2759295,80.3180431 38.8282192,79.7745205 38.2077299,79.6536986 C33.5620744,78.7484149 29.2181213,76.95 25.2972211,74.3086497 C25.0724853,74.1573581 24.8153425,74.0832094 24.5596086,74.0832094 C24.2188063,74.0832094 23.8804697,74.214775 23.6250881,74.4701566 L20.154364,77.9408806 C19.871683,78.2235616 19.4958317,78.3794325 19.0958513,78.3794325 C18.6958708,78.3794325 18.3200196,78.2237378 18.0371624,77.9408806 L12.0592955,71.9628376 C11.7766145,71.6801566 11.6207436,71.3041292 11.6207436,70.9043249 C11.6207436,70.5043444 11.7764384,70.1284932 12.0592955,69.845636 L15.5300196,66.3749119 C15.9770254,65.9279061 16.0446575,65.2271037 15.6915264,64.702955 C13.05,60.7818787 11.2517613,56.4381018 10.3464775,51.7924462 C10.2254795,51.1719569 9.68213307,50.7242466 9.05001957,50.7242466 L4.13894325,50.7242466 C3.31344423,50.7242466 2.64187867,50.052681 2.64187867,49.227182 L2.64187867,40.7731703 C2.64187867,39.9476712 3.31344423,39.2761057 4.13894325,39.2761057 L9.04984344,39.2761057 C9.68195695,39.2761057 10.2254795,38.8282192 10.3463014,38.2079061 C11.2515851,33.5622505 13.05,29.2184736 15.6913503,25.2973973 C16.0444814,24.7732485 15.9768493,24.0722701 15.5298434,23.6254403 L12.0592955,20.154364 C11.4756164,19.5706849 11.4756164,18.6208415 12.0592955,18.0371624 L18.0371624,12.0592955 C18.3198434,11.7766145 18.6958708,11.6207436 19.0958513,11.6207436 C19.4958317,11.6207436 19.871683,11.7764384 20.154364,12.0592955 L23.6249119,15.5298434 C24.0719178,15.9766732 24.772544,16.0444814 25.297045,15.6913503 C29.2181213,13.05 33.5618982,11.2515851 38.2077299,10.3463014 C38.8280431,10.2253033 39.2759295,9.68195695 39.2759295,9.04966732 L39.2759295,4.13894325 C39.2759295,3.31344423 39.9474951,2.64187867 40.7729941,2.64187867 L49.2270059,2.64187867 C50.0525049,2.64187867 50.7240705,3.31344423 50.7240705,4.13894325 L50.7240705,9.04984344 C50.7240705,9.68195695 51.1719569,10.2254795 51.7922701,10.3464775 C56.4379256,11.2517613 60.7817025,13.05 64.702955,15.6915264 C65.2272798,16.0446575 65.9282583,15.9770254 66.3750881,15.5300196 L69.8458121,12.0594716 C70.1284932,11.7767906 70.5043444,11.6209198 70.9043249,11.6209198 C71.3043053,11.6209198 71.6801566,11.7766145 71.9630137,12.0594716 L77.9408806,18.0373386 C78.5245597,18.6210176 78.5245597,19.5708611 77.9408806,20.1545401 L74.4703327,23.6250881 C74.0233268,24.0719178 73.9556947,24.7728963 74.3088258,25.297045 C76.9503523,29.2182975 78.748591,33.5620744 79.6538748,38.2077299 C79.7746967,38.8282192 80.3182192,39.2759295 80.9503327,39.2759295 L85.8610568,39.2759295 C86.6865558,39.2759295 87.3581213,39.9474951 87.3581213,40.7729941 L87.3581213,49.2270059 Z" id="Shape" fill="#005B96" fill-rule="nonzero"/>
                        <path d="M20.6507808,44.7114395 C20.6507808,31.4410553 31.4719748,20.644697 44.7728858,20.644697 C48.0285748,20.644697 51.1863616,21.2803058 54.1580635,22.5338922 C54.8322455,22.8182853 55.6099845,22.5035663 55.8950318,21.8309317 C56.1800791,21.1582971 55.8646362,20.382343 55.1902776,20.09795 C51.8900555,18.7059578 48.3851932,18 44.7728858,18 C30.0101575,18 18,29.9827694 18,44.7114395 C18,50.8118739 20.1151463,56.777605 23.9557742,61.5096732 C24.2176714,61.8325025 24.6004441,62 24.9865745,62 C25.2795742,62 25.5745177,61.9035567 25.8198033,61.7052044 C26.3886608,61.2455561 26.47649,60.4130055 26.0157844,59.8454535 C22.556162,55.5827309 20.6507808,50.2080014 20.6507808,44.7114395 Z" id="Path" fill="#FA655C"/>
                        <path d="M68.1731911,34.1047344 C67.5002991,34.3894978 67.1851895,35.1672499 67.4692642,35.8417731 C68.720533,38.8120792 69.3549842,41.9676317 69.3549842,45.22058 C69.3549842,58.5247373 58.5575006,69.3485723 45.2853402,69.3485723 C39.790408,69.3485723 34.4167938,67.4441401 30.154439,63.9861481 C29.5868186,63.5255067 28.7541676,63.6133574 28.2944639,64.1827073 C27.8351128,64.7518804 27.922751,65.5865499 28.4905477,66.0471912 C33.2221284,69.8859283 39.186639,72 45.2853402,72 C60.0159623,72 72,59.9867345 72,45.22058 C72,41.6112798 71.2953678,38.1087438 69.9060291,34.8103677 C69.6217781,34.1358445 68.8457305,33.8199711 68.1731911,34.1047344 Z" id="Path" fill="#FA655C"/>
                        <path d="M60.4574049,26.190747 C61.6865748,27.1853369 62.8143412,28.3130427 63.8091487,29.5426398 C64.0527147,29.843712 64.4088601,30 64.7681281,30 C65.0404553,30 65.3144259,29.91027 65.542543,29.7257154 C66.0719128,29.2976079 66.1537588,28.5214267 65.7256284,27.9922497 C64.6223501,26.6283862 63.371486,25.3775892 62.0078781,24.2743701 C61.4788371,23.8462626 60.7026143,23.9281042 60.2743195,24.4572813 C59.846189,24.9864583 59.9281994,25.7626395 60.4574049,26.190747 Z" id="Path" fill="#FA655C"/>
                        <path d="M45,24 C33.420477,24 24,33.4206527 24,45 C24,56.5793473 33.420477,66 45,66 C56.579523,66 66,56.579523 66,45 C66,33.420477 56.579523,24 45,24 Z M45,63.3640167 C34.8739582,63.3640167 26.6359833,55.1260418 26.6359833,45 C26.6359833,34.8739582 34.8739582,26.6359833 45,26.6359833 C55.1260418,26.6359833 63.3640167,34.8741339 63.3640167,45 C63.3640167,55.1258661 55.1260418,63.3640167 45,63.3640167 Z" id="Shape" fill="#FA655C" fill-rule="nonzero"/>
                    </g>
                </g>
            </g>
        </g>
    </g>
</svg>