<?xml version="1.0" encoding="UTF-8"?>
<svg width="95px" height="98px" viewBox="0 0 95 98" version="1.1" xmlns="http://www.w3.org/2000/svg" xmlns:xlink="http://www.w3.org/1999/xlink">
    <!-- Generator: Sketch 52.3 (67297) - http://www.bohemiancoding.com/sketch -->
    <title>image-rocketdesktop</title>
    <desc>Created with Sketch.</desc>
    <g id="Page-1" stroke="none" stroke-width="1" fill="none" fill-rule="evenodd">
        <g id="Home" transform="translate(-1059.000000, -3728.000000)" fill-rule="nonzero">
            <g id="OUR-CREATIVE-PROCESS" transform="translate(92.000000, 2909.000000)">
                <g id="image-rocketdesktop" transform="translate(967.000000, 819.000000)">
                    <rect id="Rectangle-path" fill="#263238" x="3" y="16" width="89" height="48"/>
                    <path d="M91.0416667,12 L3.95833333,12 C1.78125,12 0,13.8 0,16 L0,68 L95,68 L95,16 C95,13.8 93.21875,12 91.0416667,12 Z M91.0416667,64 L3.95833333,64 L3.95833333,16 L91.0416667,16 L91.0416667,64 Z" id="Shape" fill="#263238"/>
                    <path d="M0,69 L0,77 C0,79.2 1.78125,81 3.95833333,81 L91.0416667,81 C93.21875,81 95,79.2 95,77 L95,69" id="Shape" fill="#CCCCCC"/>
                    <polygon id="Rectangle-path" fill="#ECEFF1" points="29 95 69 95 69 98 29 98"/>
                    <path d="M60.045,81.135 L60,81 L36,81 C36.309,85.3718 34.8706,89.6878 32,93 L64,93 L63.9632,92.8896 C61.1814,89.6258 59.7778,85.4146 60.045,81.135 Z" id="Shape" fill="#90A4AE"/>
                    <circle id="Oval" fill="#263238" cx="46.5" cy="75.5" r="1.5"/>
                    <path d="M90,34.739373 C88.2489273,33.6621405 86.2402159,33 84.0681818,33 C79.4714182,33 75.5303182,35.7931964 73.5605591,39.8343856 C72.4963909,39.5033153 71.392875,39.2702703 70.2272727,39.2702703 C63.6751841,39.2702703 58.3636364,44.8848793 58.3636364,51.8108108 C54.3701386,51.8108108 51.1017068,54.9503351 50.5648773,59.0155604 C49.1139545,57.1821333 46.9607045,55.990991 44.5227273,55.990991 C43.0405636,55.990991 41.6695227,56.4489297 40.48395,57.1988541 C40.1317977,53.6981622 37.7640136,50.8581477 34.6090773,50.0074811 C34.6122409,49.9100829 34.6363636,49.818955 34.6363636,49.7207207 C34.6363636,45.1032937 31.0952659,41.3603604 26.7272727,41.3603604 C24.6001227,41.3603604 22.6780159,42.2584721 21.2567523,43.7025153 C19.2369682,39.8325045 15.3862295,37.1801802 10.9090909,37.1801802 C7.856775,37.1801802 5.10223636,38.4329802 3,40.4346595 L3,62 L90,62 L90,34.739373 Z" id="Shape" fill="#BDBDBD"/>
                    <path d="M90,37.739373 C88.2489273,36.6621405 86.2402159,36 84.0681818,36 C79.4714182,36 75.5303182,38.7931964 73.5605591,42.8343856 C72.4963909,42.5033153 71.392875,42.2702703 70.2272727,42.2702703 C63.6751841,42.2702703 58.3636364,47.8848793 58.3636364,54.8108108 C54.3701386,54.8108108 51.1017068,57.9503351 50.5648773,62.0155604 C49.1139545,60.1821333 46.9607045,58.990991 44.5227273,58.990991 C43.0405636,58.990991 41.6695227,59.4489297 40.48395,60.1988541 C40.1317977,56.6981622 37.7640136,53.8581477 34.6090773,53.0074811 C34.6122409,52.9100829 34.6363636,52.818955 34.6363636,52.7207207 C34.6363636,48.1032937 31.0952659,44.3603604 26.7272727,44.3603604 C24.6001227,44.3603604 22.6780159,45.2584721 21.2567523,46.7025153 C19.2369682,42.8325045 15.3862295,40.1801802 10.9090909,40.1801802 C7.856775,40.1801802 5.10223636,41.4329802 3,43.4346595 L3,65 L90,65 L90,37.739373 Z" id="Shape" fill="#ECEFF1"/>
                    <g id="Group" transform="translate(29.000000, 0.000000)">
                        <path d="M25.2777778,24 L32.7218889,31.6568 C34.1806111,33.1572 35,35.192 35,37.3138 L35,38 C35,40.2092 33.2589444,42 31.1111111,42 L25.2777778,40 L25.2777778,24 Z" id="Shape" fill="#F44336"/>
                        <path d="M17.5,0 C12.9056667,4.176 9.72222222,13.0984 9.72222222,23.4642 C9.72222222,25.487 9.72222222,37.525 9.72222222,40 C11.5581667,42.518 14.4400278,44 17.5,44 C20.5599722,44 23.4418333,42.518 25.2777778,40 C25.2777778,37.525 25.2777778,25.4868 25.2777778,23.4642 C25.2777778,13.0984 22.0943333,4.176 17.5,0 Z" id="Shape" fill="#BDBDBD"/>
                        <path d="M21.3888889,48 C21.3888889,50.2092 19.6478333,56 17.5,56 C15.3521667,56 13.6111111,50.2092 13.6111111,48 C13.6111111,45.7908 15.3521667,44 17.5,44 C19.6478333,44 21.3888889,45.7908 21.3888889,48 Z" id="Shape" fill="#FF9800"/>
                        <path d="M9.72222222,24 L4.22255556,29.6568 C2.76383333,31.1572 0,35.192 0,37.3138 L0,38 C0,40.2092 1.74105556,42 3.88888889,42 L9.72222222,40 L9.72222222,24 Z" id="Shape" fill="#F44336"/>
                        <ellipse id="Oval" fill="#263238" cx="17.5" cy="12" rx="3.88888889" ry="4"/>
                        <ellipse id="Oval" fill="#FAFAFA" cx="17.5" cy="12" rx="1.94444444" ry="2"/>
                    </g>
                </g>
            </g>
        </g>
    </g>
</svg>