<?xml version="1.0" encoding="UTF-8"?>
<svg width="185px" height="159px" viewBox="0 0 185 159" version="1.1" xmlns="http://www.w3.org/2000/svg" xmlns:xlink="http://www.w3.org/1999/xlink">
    <!-- Generator: Sketch 52.3 (67297) - http://www.bohemiancoding.com/sketch -->
    <title>icon mail</title>
    <desc>Created with Sketch.</desc>
    <g id="Page-1" stroke="none" stroke-width="1" fill="none" fill-rule="evenodd">
        <g id="Home-2" transform="translate(-978.000000, -4739.000000)">
            <g id="icon-mail" transform="translate(978.000000, 4739.000000)">
                <path d="M153.512,84.257 C153.512,49.873 125.639,22 91.256,22 C56.873,22 29,49.873 29,84.257 C29,118.64 56.873,146.513 91.256,146.513 C125.639,146.513 153.512,118.64 153.512,84.257" id="Fill-9" fill="#005B96"/>
                <polyline id="Fill-11" fill="#FA655C" points="3 4 21.269 46.865 34.621 37.731 42.36 48.975 43.756 30.008 59.916 20.16 3 4"/>
                <polyline id="Fill-12" fill="#FC867E" points="37.575 36.03 21.263 47.193 34.615 38.059 42.354 49.303 43.75 30.336 18 15 37.575 36.03"/>
                <polyline id="Fill-13" fill="#E46E3B" points="43.408 34.984 18 15 43.75 30.336 43.408 34.984"/>
                <path d="M42.543,54.812 C42.399,53.977 42.216,53.144 42,52.335 L43.253,52 C43.479,52.846 43.67,53.718 43.821,54.591 L42.543,54.812" id="Fill-14" fill="#3BB4A3"/>
                <path d="M44.298,65.305 L43.021,65.078 C43.318,63.402 43.472,61.694 43.481,60 L44.778,60.007 C44.769,61.773 44.608,63.556 44.298,65.305 Z M35.421,66.069 C33.947,65.739 32.434,65.571 30.926,65.571 L30.4,65.578 L30.368,64.281 C32.154,64.238 33.955,64.411 35.704,64.804 L35.421,66.069 Z M21.134,68.601 L20.227,67.674 C21.369,66.556 22.93,65.718 25,65.113 L25.436,66.337 C23.53,66.894 22.107,67.649 21.134,68.601 Z M44.452,70.551 C43.259,69.682 41.978,68.77 40.591,68.011 L40.157,67.781 L40.751,66.629 C40.906,66.708 41.06,66.79 41.213,66.873 C42.668,67.67 44.042,68.648 45.216,69.503 L44.452,70.551 Z M100.156,72.26 L99.756,71.027 C101.404,70.492 103.045,69.933 104.677,69.353 L105.109,70.575 C103.469,71.159 101.816,71.722 100.156,72.26 Z M90.079,75.132 L89.774,73.872 C91.395,73.478 93.084,73.031 94.79,72.543 L95.147,73.791 C93.424,74.283 91.719,74.734 90.079,75.132 Z M40.694,75.276 L39.569,74.63 C40.409,73.168 41.129,71.612 41.708,70.006 L42.928,70.445 C42.323,72.123 41.572,73.748 40.694,75.276 Z M53.636,75.792 C52.112,75.274 50.683,74.64 49.388,73.91 C49.185,73.796 48.983,73.676 48.782,73.556 L49.452,72.445 C49.641,72.559 49.831,72.671 50.024,72.779 C51.25,73.471 52.605,74.072 54.053,74.565 L53.636,75.792 Z M79.773,77.103 L79.598,75.818 C81.266,75.591 82.985,75.307 84.708,74.975 L84.953,76.248 C83.208,76.585 81.465,76.873 79.773,77.103 Z M64.033,77.693 L63.205,77.629 C61.611,77.496 60.166,77.317 58.789,77.078 L59.01,75.8 C60.349,76.032 61.757,76.207 63.312,76.337 L64.123,76.398 L64.033,77.693 Z M69.293,77.863 L69.287,76.566 C70.976,76.558 72.715,76.489 74.453,76.361 L74.548,77.654 C72.781,77.784 71.012,77.855 69.293,77.863 Z M19.118,78.159 C18.386,76.677 18,75.048 18,73.447 C18,73.316 18.003,73.185 18.009,73.053 L18.024,72.772 L19.317,72.867 L19.304,73.104 C19.3,73.22 19.297,73.334 19.297,73.447 C19.297,74.85 19.636,76.28 20.281,77.585 L19.118,78.159 Z M33.323,82.981 L32.75,81.817 C34.099,81.153 35.404,80.126 36.63,78.761 L37.594,79.628 C36.258,81.116 34.82,82.245 33.323,82.981 Z M27.935,84.038 C26.053,83.912 24.252,83.312 22.727,82.3 L23.444,81.22 C24.781,82.106 26.364,82.633 28.022,82.743 L27.935,84.038 Z" id="Fill-15" fill="#3BB4A3"/>
                <path d="M109.461,68.147 L109,66.934 C109.807,66.627 110.614,66.315 111.418,66 L111.89,67.209 C111.082,67.524 110.273,67.838 109.461,68.147" id="Fill-16" fill="#3BB4A3"/>
                <path d="M150.295134,99.5671594 C149.636134,99.5671594 149.071134,99.0661594 149.006134,98.3951594 C148.937134,97.6831594 149.458134,97.0491594 150.171134,96.9801594 C158.009134,96.2211594 165.219134,92.4791594 170.474134,86.4451594 C170.945134,85.9041594 171.764134,85.8491594 172.303134,86.3191594 C172.843134,86.7891594 172.901134,87.6081594 172.429134,88.1481594 C166.738134,94.6851594 158.922134,98.7381594 150.422134,99.5611594 L150.295134,99.5671594" id="Fill-17" fill="#3BB4A3"/>
                <path d="M134.359,99.375 L89.179,126.018 L44,99.375 L44.007,99.301 C44.044,99.132 46.538,97.05 50.34,93.96 L50.443,93.872 C62.919,83.743 89.179,63 89.179,63 C89.179,63 115.44,83.743 127.915,93.872 C131.777,97.006 134.316,99.125 134.352,99.301 L134.359,99.375" id="Fill-18" fill="#6A4724"/>
                <path d="M108.317,41 L59.571,41 C55.39,41 52,44.39 52,48.57 L52,122.274 C52,126.455 55.39,129.844 59.571,129.844 L120.652,129.844 C124.832,129.844 128.222,126.455 128.222,122.274 L128.222,60.905 L108.317,41" id="Fill-19" fill="#FFFFFE"/>
                <path d="M108,53.335 C108,57.516 111.39,60.905 115.57,60.905 L127.905,60.905 L108,41 L108,53.335" id="Fill-20" fill="#E5E7E3"/>
                <path d="M82.514,53 L65.697,53 C64.207,53 63,54.207 63,55.696 L63,72.514 C63,74.003 64.207,75.211 65.697,75.211 L82.514,75.211 C84.003,75.211 85.211,74.003 85.211,72.514 L85.211,55.696 C85.211,54.207 84.003,53 82.514,53" id="Fill-21" fill="#4A90E2"/>
                <path d="M105.526,82 L65.173,82 C63.973,82 63,82.973 63,84.173 C63,85.372 63.973,86.346 65.173,86.346 L105.526,86.346 C106.726,86.346 107.699,85.372 107.699,84.173 C107.699,82.973 106.726,82 105.526,82" id="Fill-22" fill="#D6D8D2"/>
                <path d="M105.526,92 L65.173,92 C63.973,92 63,92.973 63,94.173 C63,95.373 63.973,96.346 65.173,96.346 L105.526,96.346 C106.726,96.346 107.699,95.373 107.699,94.173 C107.699,92.973 106.726,92 105.526,92" id="Fill-23" fill="#D6D8D2"/>
                <path d="M87.2,103 L65.173,103 C63.973,103 63,103.973 63,105.173 C63,106.373 63.973,107.346 65.173,107.346 L87.2,107.346 C88.4,107.346 89.373,106.373 89.373,105.173 C89.373,103.973 88.4,103 87.2,103" id="Fill-24" fill="#D6D8D2"/>
                <path d="M134.359,99 L134.359,142.344 C134.359,145.374 131.883,147.849 128.853,147.849 L49.491,147.849 C46.461,147.849 44,145.374 44,142.344 L44,99 L89.179,125.638 L134.359,99" id="Fill-25" fill="#FA655C"/>
                <path d="M133.313,146.083 L104.234,117.003 L89.66,125.596 L75.081,117 L46,146.081 C47.001,147.138 48.406,147.807 49.972,147.807 L129.334,147.807 C130.9,147.807 132.308,147.139 133.313,146.083" id="Fill-26" fill="#D55149"/>
                <path d="M143.396659,39.1349125 C130.390659,40.4119125 120.000659,51.1319125 119.070659,64.1669125 C118.607659,70.6539125 120.445659,76.6799125 123.831659,81.5549125 C125.106659,83.3909125 125.315659,85.7639125 124.458659,87.8289125 L122.313659,92.9929125 L131.080659,90.7199125 C132.509659,90.3489125 134.018659,90.4649125 135.372659,91.0519125 C139.436659,92.8149125 144.014659,93.6189125 148.823659,93.1529125 C161.589659,91.9169125 171.918659,81.6079125 173.151659,68.8419125 C174.806659,51.7159125 160.527659,37.4539125 143.396659,39.1349125" id="Fill-27" fill="#4A90E2"/>
                <path d="M146.874,80.5720757 L148.367,79.0800757 C148.367,79.0800757 147.181,76.2880757 152.149,71.5790757 C155.105,68.7760757 155.767,66.0620757 155.527,63.8440757 C155.144,60.3120757 152.259,57.4280757 148.728,57.0450757 C146.509,56.8050757 143.795,57.4660757 140.993,60.4230757 C136.285,65.3900757 133.492,64.2050757 133.492,64.2050757 L132,65.6970757 L146.874,80.5720757" id="Fill-28" fill="#FFFFFE"/>
                <path d="M135.795282,71 C134.614282,72.611 134.747282,74.883 136.203282,76.338 C137.658282,77.793 139.929282,77.926 141.540282,76.746 L135.795282,71" id="Fill-29" fill="#FFFFFE"/>
                <path d="M156.792,58.449 L155.863,59.379 C155.139,58.229 154.157,57.247 153,56.531 L153.936,55.594 C154.728,54.802 156.008,54.802 156.8,55.594 C157.584,56.379 157.584,57.658 156.792,58.449" id="Fill-30" fill="#FFFFFE"/>
                <path d="M145.964,39.0095636 C155.631,41.9035636 162.682,50.8575636 162.682,61.4675636 C162.682,74.4195636 152.183,84.9185636 139.231,84.9185636 C132.408,84.9185636 126.285,81.9865636 122,77.3355636 C122.675,78.8125636 123.467,80.2245636 124.385,81.5455636 C125.66,83.3815636 125.869,85.7545636 125.012,87.8195636 L122.867,92.9835636 L131.634,90.7105636 C133.063,90.3395636 134.572,90.4555636 135.926,91.0425636 C139.99,92.8055636 144.568,93.6095636 149.377,93.1435636 C162.143,91.9075636 172.472,81.5985636 173.705,68.8325636 C175.294,52.3825636 162.183,38.5845636 145.964,39.0095636" id="Fill-31" fill="#2E7CD8"/>
                <path d="M4.61951022,16.8217984 L10.5455102,30.4197984 C10.8465102,31.1137984 10.5275102,31.9197984 9.83351022,32.2187984 L9.62251022,32.3097984 C8.92551022,32.6107984 8.11651022,32.2867984 7.82151022,31.5857984 L2.10751022,17.8967984 C1.80551022,17.1797984 2.16251022,16.3547984 2.89351022,16.0847984 C3.57351022,15.8337984 4.33151022,16.1577984 4.61951022,16.8217984" id="Fill-32" fill="#E46E3B"/>
                <path d="M27.356,119.12 C26.383,119.12 25.593,118.331 25.593,117.356 C25.593,116.383 26.383,115.593 27.356,115.593 C28.331,115.593 29.12,116.383 29.12,117.356 C29.12,118.331 28.331,119.12 27.356,119.12 Z M27.356,113 C24.951,113 23,114.951 23,117.356 C23,119.763 24.951,121.713 27.356,121.713 C29.763,121.713 31.713,119.763 31.713,117.356 C31.713,114.951 29.763,113 27.356,113 Z" id="Fill-33" fill="#005B96"/>
                <path d="M144.357,136.121 C143.383,136.121 142.593,135.331 142.593,134.357 C142.593,133.383 143.383,132.594 144.357,132.594 C145.33,132.594 146.12,133.383 146.12,134.357 C146.12,135.331 145.33,136.121 144.357,136.121 Z M144.357,130 C141.95,130 140,131.951 140,134.357 C140,136.764 141.95,138.714 144.357,138.714 C146.763,138.714 148.714,136.764 148.714,134.357 C148.714,131.951 146.763,130 144.357,130 Z" id="Fill-34" fill="#005B96"/>
                <path d="M180.335,67.686 C179.59,67.686 178.985,67.082 178.985,66.336 C178.985,65.59 179.59,64.986 180.335,64.986 C181.081,64.986 181.686,65.59 181.686,66.336 C181.686,67.082 181.081,67.686 180.335,67.686 Z M180.335,63 C178.493,63 177,64.494 177,66.336 C177,68.178 178.493,69.672 180.335,69.672 C182.178,69.672 183.671,68.178 183.671,66.336 C183.671,64.494 182.178,63 180.335,63 Z" id="Fill-35" fill="#005B96"/>
                <path d="M121.528,13.954 C120.74,13.954 120.1,13.315 120.1,12.526 C120.1,11.738 120.74,11.099 121.528,11.099 C122.316,11.099 122.955,11.738 122.955,12.526 C122.955,13.315 122.316,13.954 121.528,13.954 Z M121.528,9 C119.58,9 118,10.579 118,12.526 C118,14.474 119.58,16.053 121.528,16.053 C123.476,16.053 125.054,14.474 125.054,12.526 C125.054,10.579 123.476,9 121.528,9 Z" id="Fill-36" fill="#005B96"/>
                <path d="M7.708,79 C5.661,79 4,80.66 4,82.708 C4,84.756 5.661,86.416 7.708,86.416 C9.757,86.416 11.417,84.756 11.417,82.708 C11.417,80.66 9.757,79 7.708,79" id="Fill-37" fill="#005B96"/>
                <path d="M157.697,104 C156.208,104 155,105.208 155,106.697 C155,108.187 156.208,109.394 157.697,109.394 C159.186,109.394 160.394,108.187 160.394,106.697 C160.394,105.208 159.186,104 157.697,104" id="Fill-38" fill="#005B96"/>
                <path d="M67.942,10 C65.765,10 64,11.765 64,13.942 C64,16.119 65.765,17.884 67.942,17.884 C70.119,17.884 71.884,16.119 71.884,13.942 C71.884,11.765 70.119,10 67.942,10" id="Fill-39" fill="#005B96"/>
                <path d="M88.873,153 C87.286,153 86,154.286 86,155.873 C86,157.459 87.286,158.745 88.873,158.745 C90.459,158.745 91.745,157.459 91.745,155.873 C91.745,154.286 90.459,153 88.873,153" id="Fill-40" fill="#005B96"/>
                <path d="M144.371,26 C142.509,26 141,27.509 141,29.371 C141,31.232 142.509,32.742 144.371,32.742 C146.233,32.742 147.743,31.232 147.743,29.371 C147.743,27.509 146.233,26 144.371,26" id="Fill-41" fill="#005B96"/>
                <path d="M24.919,52 C23.859,52 23,52.86 23,53.919 C23,54.979 23.859,55.839 24.919,55.839 C25.979,55.839 26.838,54.979 26.838,53.919 C26.838,52.86 25.979,52 24.919,52" id="Fill-42" fill="#005B96"/>
                <path d="M181.273,46 C179.465,46 178,47.466 178,49.274 C178,51.082 179.465,52.548 181.273,52.548 C183.082,52.548 184.548,51.082 184.548,49.274 C184.548,47.466 183.082,46 181.273,46" id="Fill-43" fill="#005B96"/>
                <path d="M7.089,63 C5.935,63 5,63.936 5,65.089 C5,66.243 5.935,67.178 7.089,67.178 C8.243,67.178 9.178,66.243 9.178,65.089 C9.178,63.936 8.243,63 7.089,63" id="Fill-44" fill="#005B96"/>
                <path d="M94.96125,3.30725 L96.27225,1.99525 C96.72725,1.54025 96.72725,0.79625 96.27225,0.34125 C95.81725,-0.11375 95.07325,-0.11375 94.61925,0.34125 L93.30725,1.65325 L91.99425,0.34125 C91.54025,-0.11375 90.79525,-0.11375 90.34125,0.34125 C89.88625,0.79625 89.88625,1.54025 90.34125,1.99525 L91.65225,3.30725 L90.34125,4.61925 C89.88625,5.07425 89.88625,5.81825 90.34125,6.27325 C90.79525,6.72825 91.54025,6.72825 91.99425,6.27325 L93.30725,4.96125 L94.61925,6.27325 C95.07325,6.72825 95.81725,6.72825 96.27225,6.27325 C96.72725,5.81825 96.72725,5.07425 96.27225,4.61925 L94.96125,3.30725" id="Fill-45" fill="#005B96"/>
                <path d="M4.96125,43.30625 L6.27325,41.99425 C6.72825,41.54025 6.72825,40.79525 6.27325,40.34125 C5.81825,39.88625 5.07425,39.88625 4.61925,40.34125 L3.30725,41.65325 L1.99525,40.34125 C1.54025,39.88625 0.79625,39.88625 0.34125,40.34125 C-0.11375,40.79525 -0.11375,41.54025 0.34125,41.99425 L1.65325,43.30625 L0.34125,44.61825 C-0.11375,45.07425 -0.11375,45.81825 0.34125,46.27325 C0.79625,46.72725 1.54025,46.72725 1.99525,46.27325 L3.30725,44.96125 L4.61925,46.27325 C5.07425,46.72725 5.81825,46.72725 6.27325,46.27325 C6.72825,45.81825 6.72825,45.07425 6.27325,44.61825 L4.96125,43.30625" id="Fill-46" fill="#005B96"/>
                <path d="M160.201,122.80075 L161.313,121.68975 C161.698,121.30475 161.698,120.67375 161.313,120.28875 C160.927,119.90375 160.297,119.90375 159.912,120.28875 L158.801,121.39975 L157.69,120.28875 C157.304,119.90375 156.674,119.90375 156.288,120.28875 C155.904,120.67375 155.904,121.30475 156.288,121.68975 L157.4,122.80075 L156.288,123.91175 C155.904,124.29675 155.904,124.92775 156.288,125.31275 C156.674,125.69775 157.304,125.69775 157.69,125.31275 L158.801,124.20175 L159.912,125.31275 C160.297,125.69775 160.927,125.69775 161.313,125.31275 C161.698,124.92775 161.698,124.29675 161.313,123.91175 L160.201,122.80075" id="Fill-47" fill="#005B96"/>
            </g>
        </g>
    </g>
</svg>