<svg id="Layer_1" data-name="Layer 1" xmlns="http://www.w3.org/2000/svg" xmlns:xlink="http://www.w3.org/1999/xlink" viewBox="0 0 749.5 947.79"><defs><style>.cls-1{fill:url(#linear-gradient);}.cls-2{fill:none;stroke:#fff;stroke-opacity:0.37;stroke-width:19px;}</style><linearGradient id="linear-gradient" x1="-244.73" y1="737.27" x2="592.27" y2="-99.73" gradientUnits="userSpaceOnUse"><stop offset="0" stop-color="#00609e"/><stop offset="0.89" stop-color="#b83189"/></linearGradient></defs><title>shape-header-mobilee</title><g id="mask-3"><path id="path-2" class="cls-1" d="M-75.32,905Q2.77,700.07,174.48,758.43c73.94,25.13,132.11-.15,174.89-26.84,24-15,81.14-62.73,131.8-134.22C552,497.47,620.8,372.14,663,410V-29H-77V905h1.68Z" transform="translate(86.5 29)"/></g><g id="Page-1"><g id="Process---Mobile"><g id="Header"><path class="cls-2" d="M-67.5,862.92c54.56-111.6,137-150.21,245-113.48,32.69,11.11,63.7,12.51,94,5.74,24.61-5.5,47.73-16,72.8-31.64,13.33-8.32,33.49-24.62,54.34-44.7a617.21,617.21,0,0,0,74.73-86.95c8.43-11.9,17.08-24.48,28.34-41.14,3.42-5.06,18.44-27.38,22.44-33.29,8.61-12.73,15.46-22.72,22-32,16.27-23.16,29.67-40.7,42-54.55,14.69-16.48,27.73-27.53,40-33.12,8.82-4,17.37-5.19,25.31-3.36V-19.5h-721V862.92ZM-77,904.36V895.5h1.68V905Z" transform="translate(86.5 29)"/></g></g></g></svg>