<svg id="Layer_1" data-name="Layer 1" xmlns="http://www.w3.org/2000/svg" xmlns:xlink="http://www.w3.org/1999/xlink" viewBox="0 0 1346.54 709.83"><defs><style>.cls-1{fill:url(#linear-gradient);}.cls-2{fill:none;stroke:#fff;stroke-opacity:0.37;stroke-width:19px;}</style><linearGradient id="linear-gradient" x1="-36" y1="293.09" x2="1301.04" y2="293.09" gradientUnits="userSpaceOnUse"><stop offset="0" stop-color="#00609e"/><stop offset="1" stop-color="#b83189"/></linearGradient></defs><title>shape-headerr</title><g id="mask-3"><path id="path-2" class="cls-1" d="M-33,638.71q141.08-195,451.34-139.46c133.6,23.91,238.69-.14,316-25.54C777.75,459.45,881,414,972.5,346c127.93-95.06,252.29-214.31,328.54-178.29V-46H-36V638.71h3Z" transform="translate(45.5 52.53)"/></g><g id="Page-1"><g id="Process-2"><g id="Header"><path class="cls-2" d="M-26.5,614.7c97-119.13,246.39-160.63,446.55-124.8,61.17,10.95,119.46,12.34,176.32,5.64,45.91-5.41,88.77-15.65,135-30.85,24.72-8.12,61.61-23.83,99.68-43.14,47.77-24.23,94.37-52.41,135.76-83.17,15.26-11.34,30.89-23.32,51.25-39.18,6.18-4.82,33.33-26.06,40.54-31.68,15.54-12.1,27.91-21.6,39.67-30.42,29.3-22,53.42-38.59,75.55-51.67,47.7-28.19,86-39.51,117.7-31.24V-36H-26.5V614.7ZM-36,636.51v-7.3h3v9.5Z" transform="translate(45.5 52.53)"/></g></g></g></svg>