<svg id="Layer_1" data-name="Layer 1" xmlns="http://www.w3.org/2000/svg" viewBox="0 0 767.86 125.62"><defs><style>.cls-1{fill:#005b96;}</style></defs><title>logotipo</title><path id="_Path_" data-name="&lt;Path&gt;" class="cls-1" d="M169.83,779.27A11.91,11.91,0,0,1,153.19,777h0a11.91,11.91,0,0,1,2.31-16.64l34.08-25.77a45.6,45.6,0,1,0,8.24,63.86v7.35a11.88,11.88,0,1,0,23.76,0l0-65.6Z" transform="translate(-116.07 -692.02)"/><path id="_Compound_Path_" data-name="&lt;Compound Path&gt;" class="cls-1" d="M249.37,794.69l0.57-1a8.54,8.54,0,0,1,11.59-3.06c6.3,3.66,14.39,6.43,21.56,6.43,9.34,0,13.76-3.57,13.76-8.66,0-13.42-48.58-2.38-48.58-34.65C248.27,740,260.16,728,281.9,728a53,53,0,0,1,25.68,6.39,8.58,8.58,0,0,1,3.34,11.76h0a8.58,8.58,0,0,1-11.57,3.3A37.23,37.23,0,0,0,281.9,745c-7.81,0-12.91,3.4-12.91,8,0,12.06,48.75,1.87,48.75,35,0,15.12-12.91,26.16-35.67,26.16-10.88,0-21.47-2.77-29.72-7.62A8.57,8.57,0,0,1,249.37,794.69Z" transform="translate(-116.07 -692.02)"/><path id="_Compound_Path_2" data-name="&lt;Compound Path&gt;" class="cls-1" d="M790.62,769.63c0-25,17.53-46.2,46.57-46.2,29.22,0,46.75,21.18,46.75,46.2S866.4,816,837.18,816C808.15,816,790.62,794.65,790.62,769.63Zm69.21,0c0-13.7-8-25.57-22.64-25.57-14.43,0-22.46,11.87-22.46,25.57,0,13.88,8,25.75,22.46,25.75C851.79,795.38,859.83,783.51,859.83,769.63Z" transform="translate(-116.07 -692.02)"/><rect id="_Rectangle_" data-name="&lt;Rectangle&gt;" class="cls-1" x="627.93" width="24.83" height="123.99" rx="12.42" ry="12.42"/><g id="_Group_" data-name="&lt;Group&gt;"><path id="_Compound_Path_3" data-name="&lt;Compound Path&gt;" class="cls-1" d="M629.37,769.63c0-25,16.1-46.2,45.14-46.2,29.22,0,46.75,21.18,46.75,46.2S703.73,816,674.51,816C645.48,816,629.37,794.65,629.37,769.63Zm67.78,0c0-13.7-8-25.57-22.64-25.57-14.43,0-21,11.87-21,25.57,0,13.88,6.61,25.75,21,25.75C689.12,795.38,697.16,783.51,697.16,769.63Z" transform="translate(-116.07 -692.02)"/><rect id="_Rectangle_2" data-name="&lt;Rectangle&gt;" class="cls-1" x="506.66" width="24.83" height="123.99" rx="12.42" ry="12.42"/></g><path id="_Compound_Path_4" data-name="&lt;Compound Path&gt;" class="cls-1" d="M342.06,771.56c0-23.87,15.37-44.09,43.07-44.09,27.88,0,44.61,20.21,44.61,44.09S413,815.82,385.13,815.82C357.43,815.82,342.06,795.44,342.06,771.56Zm64.68,0c0-13.07-7.67-24.4-21.61-24.4-13.77,0-20.07,11.33-20.07,24.4,0,13.24,6.31,24.57,20.07,24.57C399.07,796.13,406.74,784.81,406.74,771.56Z" transform="translate(-116.07 -692.02)"/><rect id="_Rectangle_3" data-name="&lt;Rectangle&gt;" class="cls-1" x="299.1" y="32.99" width="23.7" height="90.81" rx="11.85" ry="11.85"/><path id="_Path_2" data-name="&lt;Path&gt;" class="cls-1" d="M584.46,722.48h0a12.41,12.41,0,0,0-10.09,5.22,28.81,28.81,0,0,0-17.29-5.22c-13.58,0-22.07,7.32-27,17.53-5-10.21-13.59-17.53-27.26-17.53a28.36,28.36,0,0,0-17.15,5.22,12.39,12.39,0,0,0-21.56,8.36V803.6a12.42,12.42,0,0,0,24.83,0V763.41c0.64-9.48,3.48-16.83,13.87-16.83,10.89,0,14.5,7.87,15.25,17.82v39.2a12.42,12.42,0,0,0,24.83,0V769H543v-1.6h0c0.16-11.32,2.21-20.82,14-20.82,9.88,0,13.76,6.48,15,15.11V803.6A12.45,12.45,0,0,0,584.46,816h0a12.45,12.45,0,0,0,12.42-12.42v-68.7A12.45,12.45,0,0,0,584.46,722.48Z" transform="translate(-116.07 -692.02)"/></svg>