<svg xmlns="http://www.w3.org/2000/svg" width="151" height="150" viewBox="0 0 151 150">
    <g fill="none">
        <path fill="#033ECC" d="M67.672 67.672v74.844c0 1.323-.526 2.592-1.461 3.528-.936.936-2.206 1.461-3.53 1.461H7.797c-1.323 0-2.593-.525-3.528-1.46-.936-.937-1.461-2.206-1.461-3.53V84.709c.004-1.323.53-2.591 1.462-3.53l17.034-17.034c.938-.932 2.206-1.457 3.53-1.462h37.849c1.323 0 2.593.525 3.529 1.46.935.937 1.46 2.206 1.46 3.53z"/>
        <path fill="#206AF1" d="M22.765 63.134v14.517c0 1.323-.525 2.593-1.46 3.528-.937.936-2.206 1.462-3.53 1.461H3.26c.245-.544.588-1.04 1.01-1.462l17.034-17.034c.422-.422.917-.764 1.462-1.01z"/>
        <path fill="#033ECC" d="M82.64 115.073L97.609 115.073 97.609 132.536 82.64 132.536zM97.609 100.104L112.578 100.104 112.578 132.536 97.609 132.536zM112.578 85.135L127.547 85.135 127.547 132.536 112.578 132.536zM127.547 70.166L142.516 70.166 142.516 132.536 127.547 132.536z"/>
        <g fill="#FFF" transform="translate(2.807 15.28)">
            <circle cx="4.99" cy="39.917" r="4.99"/>
            <circle cx="22.453" cy="22.453" r="4.99"/>
            <circle cx="47.401" cy="22.453" r="4.99"/>
            <circle cx="72.349" cy="4.99" r="4.99"/>
        </g>
        <path fill="#033ECC" d="M147.505 32.744c0 16.534-13.403 29.938-29.937 29.938-16.535 0-29.938-13.404-29.938-29.938s13.403-29.937 29.938-29.937c7.947-.024 15.575 3.123 21.195 8.742 5.62 5.62 8.766 13.248 8.742 21.195z"/>
        <path fill="#1F68EE" d="M147.505 32.744h-29.937V2.807c7.94 0 15.554 3.154 21.169 8.768 5.614 5.615 8.768 13.23 8.768 21.17z"/>
        <path fill="#FCFCFC" d="M147.505 32.744c.01 8.554-3.65 16.702-10.05 22.376l-19.887-22.376h29.937z"/>
        <circle cx="52.703" cy="77.651" r="4.99" fill="#033ECC"/>
        <circle cx="55.198" cy="132.536" r="4.99" fill="#033ECC"/>
        <path fill="#FFF" d="M32.744 77.651L40.229 77.651 40.229 82.64 32.744 82.64zM50.208 90.125L57.692 90.125 57.692 95.114 50.208 95.114zM32.744 90.125L45.218 90.125 45.218 95.114 32.744 95.114zM12.786 90.125L27.755 90.125 27.755 95.114 12.786 95.114zM27.755 102.599L57.692 102.599 57.692 107.588 27.755 107.588zM12.786 102.599L22.765 102.599 22.765 107.588 12.786 107.588zM42.723 115.073L57.692 115.073 57.692 120.062 42.723 120.062zM12.786 115.073L37.734 115.073 37.734 120.062 12.786 120.062zM27.755 127.547L42.723 127.547 42.723 132.536 27.755 132.536zM12.786 127.547L22.765 127.547 22.765 132.536 12.786 132.536z"/>
        <path fill="#013285" d="M145.01 70.166c0-1.378-1.117-2.494-2.494-2.494h-14.97c-1.377 0-2.494 1.116-2.494 2.494V82.64h-12.474c-1.378 0-2.495 1.117-2.495 2.495V97.61H97.61c-1.378 0-2.495 1.117-2.495 2.495v12.474H82.64c-1.378 0-2.494 1.117-2.494 2.495v14.969H62.253c-1.215-3.437-4.73-5.499-8.322-4.882-3.593.616-6.219 3.731-6.219 7.376 0 3.646 2.626 6.76 6.219 7.377 3.592.616 7.107-1.445 8.322-4.882h2.924v7.485c-.002 1.377-1.118 2.493-2.495 2.494H7.796c-1.377-.001-2.493-1.117-2.495-2.494v-57.38h12.474c4.132-.006 7.48-3.354 7.485-7.485V65.177h37.422c1.377.001 2.493 1.117 2.495 2.495v2.494h4.99v-2.494c-.005-4.132-3.354-7.48-7.485-7.485h-37.85c-1.986-.005-3.892.784-5.293 2.192L2.504 79.415C1.096 80.815.306 82.72.312 84.707v57.809c.005 4.131 3.353 7.48 7.484 7.484h54.886c4.131-.005 7.48-3.353 7.484-7.484v-7.485H150v-4.99h-4.99V70.167zM20.27 68.705v8.946c-.001 1.377-1.117 2.493-2.495 2.495H8.83l11.44-11.441zm34.928 66.326c-1.378 0-2.495-1.117-2.495-2.495 0-1.377 1.117-2.494 2.495-2.494 1.377 0 2.494 1.117 2.494 2.494-.001 1.378-1.117 2.494-2.494 2.495zm29.937-17.463h9.98v12.474h-9.98v-12.474zm14.969-14.97h9.98v27.444h-9.98v-27.443zm14.969-14.968h9.979v42.412h-9.98V87.63zm14.969 42.412v-57.38h9.979v57.38h-9.98z"/>
        <path fill="#033ECC" d="M7.796 62.682c2.57 0 4.96-1.318 6.331-3.492 1.371-2.173 1.53-4.899.422-7.217l7.486-7.486c1.915.915 4.128.974 6.09.162 1.96-.812 3.483-2.42 4.19-4.42h10.838c1.137 3.217 4.306 5.257 7.705 4.961 3.399-.296 6.167-2.854 6.73-6.22l14.09-12.076c3.227 1.694 7.205.817 9.42-2.077 2.217-2.894 2.026-6.963-.452-9.637-2.477-2.674-6.52-3.174-9.574-1.185-3.055 1.99-4.232 5.89-2.788 9.236l-11.936 10.23c-1.601-2.305-4.359-3.52-7.141-3.145s-5.12 2.276-6.054 4.923H32.315c-.922-2.61-3.21-4.498-5.948-4.908-2.738-.41-5.479.725-7.125 2.951s-1.929 5.179-.735 7.677l-7.486 7.485c-2.775-1.325-6.078-.818-8.328 1.279-2.25 2.096-2.987 5.356-1.86 8.217 1.126 2.861 3.888 4.742 6.963 4.742zm67.36-44.907c1.378 0 2.495 1.117 2.495 2.495 0 1.378-1.117 2.495-2.495 2.495-1.378 0-2.495-1.117-2.495-2.495.002-1.377 1.118-2.493 2.495-2.495zM50.208 35.24c1.378 0 2.495 1.117 2.495 2.495 0 1.378-1.117 2.495-2.495 2.495-1.378 0-2.495-1.117-2.495-2.495.002-1.377 1.118-2.493 2.495-2.495zm-24.948 0c1.378 0 2.495 1.117 2.495 2.495 0 1.378-1.117 2.495-2.495 2.495-1.378 0-2.495-1.117-2.495-2.495.002-1.377 1.118-2.493 2.495-2.495zM7.796 52.703c1.378 0 2.495 1.117 2.495 2.495 0 1.377-1.117 2.494-2.495 2.494-1.378 0-2.495-1.117-2.495-2.494.002-1.378 1.118-2.494 2.495-2.495z"/>
        <path fill="#013285" d="M98.097 58.665l-16.49 16.49h-21.85c-1.214-3.436-4.728-5.497-8.321-4.88-3.593.616-6.219 3.73-6.219 7.376 0 3.645 2.626 6.76 6.219 7.376 3.593.617 7.107-1.445 8.322-4.881h5.419v44.906h4.99V80.146H82.64c.662 0 1.297-.263 1.765-.731l18.005-18.006c15.425 8.187 34.563 2.73 43.35-12.362 8.787-15.091 4.087-34.429-10.647-43.803-14.735-9.373-34.242-5.437-44.188 8.917-9.946 14.355-6.78 34.002 7.172 44.505zm-45.394 21.48c-1.378 0-2.495-1.116-2.495-2.494 0-1.378 1.117-2.495 2.495-2.495 1.378 0 2.495 1.117 2.495 2.495-.002 1.377-1.118 2.493-2.495 2.495zm84.876-28.643l-14.456-16.263h21.773c-.554 6.086-3.13 11.812-7.317 16.263zm7.317-21.253h-24.834V5.416c13.176 1.221 23.612 11.657 24.834 24.833zM115.073 5.416v27.328c0 .611.225 1.2.632 1.656l-.002.002 18.149 20.417c-9.34 6.89-22.003 7.16-31.627.672-9.623-6.487-14.124-18.328-11.24-29.57 2.885-11.24 12.53-19.452 24.088-20.505z"/>
    </g>
</svg>
