<svg xmlns="http://www.w3.org/2000/svg" width="154" height="154" viewBox="0 0 154 154">
    <g fill="none">
        <path fill="#033ECC" d="M19.25 24.75H35.75V35.75H19.25z"/>
        <circle cx="20.625" cy="15.125" r="4.125" fill="#033ECC"/>
        <path fill="#033ECC" d="M8.25 49.5h11c.573 0 1.131.179 1.598.511L34.44 59.72 33 52.81c-.169-.81.037-1.653.559-2.295.522-.642 1.306-1.015 2.133-1.015H57.75c4.556 0 8.25-3.694 8.25-8.25v-33C66 3.694 62.306 0 57.75 0H8.25C3.694 0 0 3.694 0 8.25v33c0 4.556 3.694 8.25 8.25 8.25zM19.428 5.573c2.987-.374 5.976.676 8.072 2.837 2.399-2.479 5.942-3.482 9.284-2.629 3.342.853 5.971 3.432 6.889 6.757.917 3.325-.017 6.887-2.45 9.333.003.045.027.083.027.129v1.05l7.017-3.52c.852-.428 1.866-.383 2.677.118.812.5 1.306 1.386 1.306 2.34v16.397c0 .946-.487 1.826-1.289 2.328-.802.503-1.806.558-2.658.146l-7.053-3.41V38.5c0 1.519-1.231 2.75-2.75 2.75h-22c-1.519 0-2.75-1.231-2.75-2.75V22c0-.046.024-.084.026-.129-2.575-2.605-3.446-6.447-2.246-9.908 1.2-3.46 4.263-5.938 7.898-6.39zM60.5 112.75v-16.5c-.005-4.554-3.696-8.245-8.25-8.25l-5.6-.106c-.845-.015-1.636-.419-2.145-1.094-.509-.675-.679-1.546-.461-2.363l1.226-4.602-13.656 7.803c-.415.237-.885.362-1.364.362h-22C3.694 88 0 91.694 0 96.25v16.5c0 4.556 3.694 8.25 8.25 8.25h44c4.556 0 8.25-3.694 8.25-8.25zm-19.25-16.5H55v5.5H41.25v-5.5zm-35.75 0h30.25v5.5H5.5v-5.5zm0 16.5v-5.5H55v5.5H5.5z"/>
        <path fill="#033ECC" d="M46.75 26.45L41.25 29.2 41.25 31.3 46.75 34.05z"/>
        <path fill="#013285" d="M90.75 16.5h24.243c-1.157-3.287-4.258-5.49-7.743-5.5H71.5v11h8.319c2.576-3.45 6.625-5.488 10.931-5.5z"/>
        <circle cx="34.375" cy="15.125" r="4.125" fill="#033ECC"/>
        <path fill="#206AF1" d="M128.056 80.446L121 85.486v20.626l10.194 10.194-3.888 3.888-23.2-23.2c-2.723-2.722-7.138-2.722-9.86 0-1.308 1.308-2.043 3.082-2.043 4.931 0 1.85.735 3.623 2.042 4.93l17.7 17.701c.93.93 1.07 2.387.338 3.478l-1.237 1.842c-1.163 1.74-2.054 3.647-2.643 5.656-1.905 6.287-.804 13.101 2.985 18.468h28.862v-49.39c0-5.99-2.171-11.776-6.112-16.287l-6.082-7.877z"/>
        <circle cx="123.75" cy="38.5" r="5.5" fill="#033ECC"/>
        <path fill="#033ECC" d="M122.184 65.513L101.75 50.187l-19.121 14.34c.623 4.005 4.067 6.962 8.121 6.973h24.768c.825 0 1.606.37 2.128 1.01.523.638.73 1.477.567 2.286l-1.403 6.924 13.592-9.709c.467-.332 1.025-.511 1.598-.511h13.75c4.017-.008 7.443-2.91 8.113-6.871l-13.613-9.075-14.877 10.037c-.971.656-2.251.625-3.189-.078z"/>
        <path fill="#013285" d="M86.515 101.75c.007-5.044 3.048-9.59 7.71-11.519 4.66-1.93 10.024-.864 13.594 2.7l7.681 7.68V89.417l-1.25.84c-.969.651-2.25.598-3.162-.132-.774-.62-1.142-1.617-.956-2.59L112.146 77H90.75C83.156 77 77 70.844 77 63.25v-33c0-.924.093-1.845.278-2.75H71.5v13.75c0 3.647-1.449 7.144-4.027 9.723C64.894 53.55 61.397 55 57.75 55H39.104l2.092 10.46c.162.808-.047 1.646-.57 2.283-.522.637-1.302 1.007-2.126 1.007v8.618l9.636-5.505c.956-.546 2.146-.469 3.024.196.877.665 1.274 1.79 1.007 2.858L50.273 82.5h1.977C59.844 82.5 66 88.656 66 96.25v16.5c0 3.647-1.449 7.144-4.027 9.723-2.579 2.578-6.076 4.027-9.723 4.027H38.5v5.5h65.373c.665-1.81 1.532-3.54 2.582-5.156l-16.274-16.276c-2.351-2.332-3.671-5.507-3.666-8.818z"/>
        <path fill="#033ECC" d="M145.75 22h-55c-4.554.005-8.245 3.696-8.25 8.25v27.5l17.6-13.2c.977-.733 2.32-.733 3.298 0l20.445 15.331 14.88-9.92c.924-.615 2.127-.615 3.052 0L154 58.111V30.25c-.005-4.554-3.696-8.245-8.25-8.25zm-22 27.5c-6.075 0-11-4.925-11-11s4.925-11 11-11 11 4.925 11 11c-.006 6.072-4.928 10.994-11 11z"/>
        <path fill="#013285" d="M102.34 137.5H38.5v8.25c.005 4.554 3.696 8.245 8.25 8.25h58.273c-2.631-5.073-3.572-10.855-2.683-16.5zm-22.59 11h-5.5V143h5.5v5.5z"/>
    </g>
</svg>
