<svg xmlns="http://www.w3.org/2000/svg" width="150" height="150" viewBox="0 0 150 150">
    <g fill="none">
        <path fill="#033ECC" d="M85 47.5H65l2.5-20h-65v120h145v-120h-65l2.5 20zM62.5 80h-15V65h15v15zm0 40h-15v-15h15v15zm7.5-12.5v-10 10zM90 65h15v15H90V65z"/>
        <g fill="#013285">
            <path d="M65 0L15 0 0 25 65 25zM80 0L80 25 145 25 130 0z" transform="translate(2.5 2.5)"/>
        </g>
        <path fill="#206AF1" d="M65 47.5L85 47.5 82.5 27.5 82.5 2.5 67.5 2.5 67.5 27.5z"/>
        <g fill="#033ECC">
            <path d="M0 15L15 15 15 0 0 0zM0 55L15 55 15 40 0 40zM57.5 0L42.5 0 42.5 15 57.5 15z" transform="translate(47.5 65)"/>
        </g>
        <path fill="#072F74" d="M150 27.5c-.007-.292-.066-.58-.173-.852-.027-.075-.057-.143-.09-.213-.032-.07-.052-.142-.092-.21l-15-25C134.195.467 133.381.002 132.5 0h-115c-.878 0-1.69.46-2.143 1.212l-15 25c-.04.068-.057.143-.092.213-.035.07-.063.135-.09.21-.11.276-.168.568-.175.865v120c0 1.38 1.12 2.5 2.5 2.5h145c1.38 0 2.5-1.12 2.5-2.5v-120zM85 5h46.085l12 20H85V5zM69.98 27.81c.013-.103.02-.206.02-.31V5h10v22.5c0 .104.007.207.02.31L82.168 45H67.832l2.148-17.19zM18.915 5H65v20H6.918L18.915 5zM145 145H5V30h59.668L62.52 47.19c-.171 1.37.8 2.62 2.17 2.79.103.013.207.02.31.02h20c1.38 0 2.5-1.12 2.5-2.5 0-.104-.007-.207-.02-.31L85.332 30H145v115z"/>
        <path fill="#FFF" d="M45 82.5h20v-20H45v20zm5-15h10v10H50v-10zM67.5 62.5L72.5 62.5 72.5 67.5 67.5 67.5z"/>
        <path fill="#FFF" d="M52.5 70L57.5 70 57.5 75 52.5 75zM45 122.5h20v-20H45v20zm5-15h10v10H50v-10z"/>
        <path fill="#FFF" d="M52.5 110L57.5 110 57.5 115 52.5 115zM107.5 62.5h-20v20h20v-20zm-5 15h-10v-10h10v10z"/>
        <path fill="#FFF" d="M95 70L100 70 100 75 95 75zM82.5 62.5L77.5 62.5 77.5 70 67.5 70 67.5 75 82.5 75zM67.5 77.5L85 77.5 85 82.5 67.5 82.5zM45 85L50 85 50 90 45 90zM55 85L67.5 85 67.5 90 55 90zM45 95L60 95 60 100 45 100zM65 95L65 100 67.5 100 67.5 107.5 72.5 107.5 72.5 95zM67.5 112.5L72.5 112.5 72.5 122.5 67.5 122.5zM82.5 100L77.5 100 77.5 107.5 72.5 107.5 72.5 112.5 82.5 112.5zM72.5 85L77.5 85 77.5 92.5 72.5 92.5zM82.5 87.5L92.5 87.5 92.5 92.5 82.5 92.5zM95 85L100 85 100 92.5 95 92.5zM102.5 85L107.5 85 107.5 92.5 102.5 92.5zM85 95L107.5 95 107.5 100 85 100zM85 105L95 105 95 110 85 110zM107.5 112.5L102.5 112.5 102.5 117.5 92.5 117.5 92.5 122.5 107.5 122.5zM80 117.5L87.5 117.5 87.5 122.5 80 122.5zM100 102.5L105 102.5 105 107.5 100 107.5zM112.5 70L117.5 70 117.5 52.5 100 52.5 100 57.5 112.5 57.5zM40 57.5L52.5 57.5 52.5 52.5 35 52.5 35 70 40 70z"/>
        <path fill="#FFF" d="M112.5 127.5L100 127.5 100 132.5 117.5 132.5 117.5 115 112.5 115zM40 115L35 115 35 132.5 52.5 132.5 52.5 127.5 40 127.5z"/>
    </g>
</svg>
